<svg xmlns="http://www.w3.org/2000/svg" xmlns:xlink="http://www.w3.org/1999/xlink" width="1080" zoomAndPan="magnify" viewBox="0 0 810 809.999993" height="1080" preserveAspectRatio="xMidYMid meet" version="1.0"><defs><clipPath id="67f55abb5d"><path d="M 95 22 L 791.476562 22 L 791.476562 154 L 95 154 Z M 95 22 " clip-rule="nonzero"/></clipPath><clipPath id="d6253ad1d1"><path d="M 18.226562 211 L 199 211 L 199 388 L 18.226562 388 Z M 18.226562 211 " clip-rule="nonzero"/></clipPath><clipPath id="b3a83927df"><path d="M 95 444 L 791.476562 444 L 791.476562 576 L 95 576 Z M 95 444 " clip-rule="nonzero"/></clipPath><clipPath id="37c61aa4ea"><path d="M 95 655 L 791.476562 655 L 791.476562 787 L 95 787 Z M 95 655 " clip-rule="nonzero"/></clipPath></defs><g clip-path="url(#67f55abb5d)"><path fill="#006d77" d="M 95.042969 22.308594 L 725.78125 22.308594 C 726.855469 22.308594 727.929688 22.335938 729 22.386719 C 730.074219 22.441406 731.144531 22.519531 732.214844 22.625 C 733.28125 22.730469 734.347656 22.859375 735.410156 23.019531 C 736.472656 23.175781 737.53125 23.359375 738.585938 23.570312 C 739.636719 23.777344 740.6875 24.011719 741.726562 24.273438 C 742.769531 24.535156 743.804688 24.820312 744.832031 25.132812 C 745.859375 25.445312 746.878906 25.78125 747.890625 26.144531 C 748.902344 26.503906 749.90625 26.890625 750.898438 27.304688 C 751.890625 27.714844 752.871094 28.148438 753.84375 28.609375 C 754.8125 29.066406 755.773438 29.550781 756.71875 30.054688 C 757.667969 30.5625 758.601562 31.089844 759.523438 31.644531 C 760.445312 32.195312 761.351562 32.769531 762.246094 33.367188 C 763.136719 33.964844 764.015625 34.582031 764.878906 35.222656 C 765.742188 35.859375 766.589844 36.519531 767.417969 37.203125 C 768.25 37.882812 769.0625 38.585938 769.859375 39.304688 C 770.65625 40.027344 771.433594 40.765625 772.191406 41.527344 C 772.953125 42.285156 773.695312 43.0625 774.414062 43.859375 C 775.136719 44.65625 775.839844 45.46875 776.519531 46.296875 C 777.203125 47.128906 777.863281 47.976562 778.503906 48.835938 C 779.144531 49.699219 779.761719 50.578125 780.359375 51.472656 C 780.957031 52.363281 781.53125 53.269531 782.085938 54.191406 C 782.636719 55.113281 783.167969 56.046875 783.675781 56.996094 C 784.179688 57.941406 784.664062 58.902344 785.125 59.871094 C 785.585938 60.84375 786.019531 61.824219 786.433594 62.816406 C 786.84375 63.808594 787.230469 64.8125 787.59375 65.824219 C 787.957031 66.835938 788.292969 67.855469 788.605469 68.882812 C 788.917969 69.910156 789.207031 70.945312 789.46875 71.988281 C 789.730469 73.03125 789.964844 74.078125 790.175781 75.128906 C 790.386719 76.183594 790.570312 77.242188 790.730469 78.304688 C 790.886719 79.367188 791.019531 80.433594 791.125 81.503906 C 791.234375 82.574219 791.3125 83.644531 791.367188 84.714844 C 791.421875 85.789062 791.449219 86.863281 791.449219 87.9375 C 791.449219 89.011719 791.421875 90.085938 791.371094 91.160156 C 791.316406 92.234375 791.238281 93.308594 791.132812 94.375 C 791.027344 95.445312 790.894531 96.511719 790.738281 97.578125 C 790.578125 98.640625 790.394531 99.699219 790.1875 100.753906 C 789.976562 101.808594 789.742188 102.855469 789.480469 103.898438 C 789.21875 104.941406 788.933594 105.976562 788.621094 107.007812 C 788.308594 108.035156 787.972656 109.054688 787.609375 110.070312 C 787.246094 111.082031 786.859375 112.082031 786.449219 113.078125 C 786.039062 114.070312 785.601562 115.054688 785.144531 116.023438 C 784.683594 116.996094 784.199219 117.957031 783.695312 118.90625 C 783.1875 119.851562 782.660156 120.789062 782.105469 121.710938 C 781.554688 122.632812 780.980469 123.539062 780.382812 124.433594 C 779.785156 125.328125 779.164062 126.207031 778.527344 127.070312 C 777.886719 127.933594 777.222656 128.78125 776.542969 129.613281 C 775.859375 130.441406 775.160156 131.257812 774.4375 132.054688 C 773.714844 132.851562 772.976562 133.628906 772.214844 134.390625 C 771.453125 135.148438 770.675781 135.890625 769.878906 136.613281 C 769.085938 137.335938 768.269531 138.035156 767.441406 138.71875 C 766.609375 139.398438 765.761719 140.0625 764.898438 140.703125 C 764.035156 141.34375 763.15625 141.960938 762.265625 142.558594 C 761.371094 143.15625 760.460938 143.730469 759.539062 144.285156 C 758.621094 144.835938 757.683594 145.367188 756.738281 145.871094 C 755.789062 146.378906 754.828125 146.863281 753.859375 147.324219 C 752.886719 147.78125 751.902344 148.21875 750.910156 148.628906 C 749.917969 149.039062 748.914062 149.425781 747.902344 149.789062 C 746.890625 150.152344 745.871094 150.488281 744.84375 150.800781 C 743.816406 151.113281 742.78125 151.398438 741.738281 151.660156 C 740.695312 151.921875 739.648438 152.15625 738.59375 152.367188 C 737.539062 152.578125 736.480469 152.761719 735.417969 152.917969 C 734.355469 153.078125 733.289062 153.207031 732.21875 153.3125 C 731.148438 153.417969 730.078125 153.496094 729.003906 153.550781 C 727.929688 153.601562 726.855469 153.628906 725.78125 153.628906 L 95.042969 153.628906 Z M 95.042969 22.308594 " fill-opacity="1" fill-rule="nonzero"/></g><path fill="#105f63" d="M 199.710938 88.328125 C 199.710938 89.769531 199.675781 91.214844 199.601562 92.65625 C 199.53125 94.097656 199.421875 95.535156 199.277344 96.972656 C 199.132812 98.410156 198.949219 99.839844 198.734375 101.269531 C 198.515625 102.695312 198.265625 104.117188 197.976562 105.535156 C 197.6875 106.949219 197.363281 108.355469 197.003906 109.757812 C 196.644531 111.15625 196.25 112.546875 195.820312 113.929688 C 195.390625 115.308594 194.929688 116.679688 194.429688 118.039062 C 193.933594 119.398438 193.402344 120.746094 192.835938 122.078125 C 192.269531 123.410156 191.671875 124.730469 191.039062 126.035156 C 190.40625 127.339844 189.742188 128.628906 189.046875 129.902344 C 188.347656 131.175781 187.621094 132.429688 186.859375 133.667969 C 186.101562 134.90625 185.308594 136.125 184.488281 137.324219 C 183.667969 138.523438 182.816406 139.703125 181.9375 140.863281 C 181.054688 142.023438 180.148438 143.160156 179.207031 144.277344 C 178.269531 145.390625 177.304688 146.484375 176.3125 147.554688 C 175.320312 148.625 174.300781 149.667969 173.257812 150.6875 C 172.210938 151.710938 171.140625 152.703125 170.046875 153.675781 C 168.949219 154.644531 167.832031 155.585938 166.6875 156.5 C 165.546875 157.417969 164.382812 158.304688 163.195312 159.164062 C 162.007812 160.023438 160.796875 160.855469 159.570312 161.65625 C 158.339844 162.457031 157.089844 163.230469 155.824219 163.972656 C 154.554688 164.714844 153.269531 165.425781 151.964844 166.105469 C 150.664062 166.785156 149.34375 167.4375 148.007812 168.054688 C 146.671875 168.667969 145.320312 169.253906 143.953125 169.808594 C 142.589844 170.359375 141.210938 170.878906 139.816406 171.363281 C 138.425781 171.851562 137.023438 172.304688 135.609375 172.722656 C 134.195312 173.140625 132.769531 173.527344 131.335938 173.878906 C 129.902344 174.226562 128.460938 174.542969 127.011719 174.824219 C 125.558594 175.105469 124.105469 175.355469 122.640625 175.566406 C 121.179688 175.777344 119.714844 175.953125 118.242188 176.09375 C 116.769531 176.238281 115.296875 176.34375 113.820312 176.414062 C 112.34375 176.484375 110.867188 176.519531 109.390625 176.519531 C 107.910156 176.519531 106.433594 176.484375 104.957031 176.414062 C 103.480469 176.34375 102.007812 176.238281 100.535156 176.09375 C 99.066406 175.953125 97.597656 175.777344 96.136719 175.566406 C 94.675781 175.355469 93.21875 175.105469 91.769531 174.824219 C 90.320312 174.542969 88.875 174.226562 87.441406 173.878906 C 86.007812 173.527344 84.585938 173.140625 83.171875 172.722656 C 81.753906 172.304688 80.351562 171.851562 78.960938 171.363281 C 77.570312 170.878906 76.191406 170.359375 74.824219 169.808594 C 73.457031 169.253906 72.109375 168.667969 70.773438 168.054688 C 69.433594 167.4375 68.117188 166.785156 66.8125 166.105469 C 65.507812 165.425781 64.222656 164.714844 62.953125 163.972656 C 61.6875 163.230469 60.4375 162.457031 59.207031 161.65625 C 57.980469 160.855469 56.773438 160.023438 55.585938 159.164062 C 54.398438 158.304688 53.230469 157.417969 52.089844 156.5 C 50.945312 155.585938 49.828125 154.644531 48.734375 153.675781 C 47.636719 152.703125 46.566406 151.710938 45.523438 150.6875 C 44.476562 149.667969 43.457031 148.625 42.464844 147.554688 C 41.472656 146.484375 40.507812 145.390625 39.570312 144.277344 C 38.632812 143.160156 37.722656 142.023438 36.84375 140.863281 C 35.960938 139.703125 35.109375 138.523438 34.289062 137.324219 C 33.46875 136.125 32.675781 134.90625 31.917969 133.667969 C 31.15625 132.429688 30.429688 131.175781 29.730469 129.902344 C 29.035156 128.628906 28.371094 127.339844 27.738281 126.035156 C 27.105469 124.730469 26.507812 123.410156 25.941406 122.078125 C 25.375 120.746094 24.84375 119.398438 24.347656 118.039062 C 23.847656 116.679688 23.386719 115.308594 22.957031 113.929688 C 22.527344 112.546875 22.132812 111.15625 21.773438 109.757812 C 21.414062 108.355469 21.089844 106.949219 20.800781 105.535156 C 20.515625 104.117188 20.261719 102.695312 20.042969 101.269531 C 19.828125 99.839844 19.648438 98.410156 19.503906 96.972656 C 19.355469 95.535156 19.25 94.097656 19.175781 92.65625 C 19.101562 91.214844 19.066406 89.769531 19.066406 88.328125 C 19.066406 86.886719 19.101562 85.441406 19.175781 84 C 19.25 82.558594 19.355469 81.121094 19.503906 79.683594 C 19.648438 78.246094 19.828125 76.816406 20.042969 75.386719 C 20.261719 73.960938 20.515625 72.539062 20.800781 71.121094 C 21.089844 69.707031 21.414062 68.300781 21.773438 66.898438 C 22.132812 65.5 22.527344 64.109375 22.957031 62.726562 C 23.386719 61.347656 23.847656 59.976562 24.347656 58.617188 C 24.84375 57.257812 25.375 55.910156 25.941406 54.578125 C 26.507812 53.246094 27.105469 51.925781 27.738281 50.621094 C 28.371094 49.316406 29.035156 48.027344 29.730469 46.753906 C 30.429688 45.480469 31.15625 44.226562 31.917969 42.988281 C 32.675781 41.75 33.46875 40.53125 34.289062 39.332031 C 35.109375 38.132812 35.960938 36.953125 36.84375 35.792969 C 37.722656 34.632812 38.632812 33.496094 39.570312 32.378906 C 40.507812 31.265625 41.472656 30.171875 42.464844 29.101562 C 43.457031 28.03125 44.476562 26.988281 45.523438 25.96875 C 46.566406 24.945312 47.636719 23.953125 48.734375 22.980469 C 49.828125 22.011719 50.945312 21.070312 52.089844 20.15625 C 53.230469 19.238281 54.398438 18.351562 55.585938 17.492188 C 56.773438 16.632812 57.980469 15.800781 59.207031 15 C 60.4375 14.195312 61.6875 13.425781 62.953125 12.683594 C 64.222656 11.941406 65.507812 11.230469 66.8125 10.550781 C 68.117188 9.871094 69.433594 9.21875 70.773438 8.601562 C 72.109375 7.984375 73.457031 7.402344 74.824219 6.847656 C 76.191406 6.296875 77.570312 5.777344 78.960938 5.292969 C 80.351562 4.804688 81.753906 4.351562 83.171875 3.933594 C 84.585938 3.515625 86.007812 3.128906 87.441406 2.777344 C 88.875 2.429688 90.320312 2.113281 91.769531 1.832031 C 93.21875 1.550781 94.675781 1.300781 96.136719 1.089844 C 97.597656 0.878906 99.066406 0.703125 100.535156 0.5625 C 102.007812 0.417969 103.480469 0.3125 104.957031 0.242188 C 106.433594 0.171875 107.910156 0.136719 109.390625 0.136719 C 110.867188 0.136719 112.34375 0.171875 113.820312 0.242188 C 115.296875 0.3125 116.769531 0.417969 118.242188 0.5625 C 119.714844 0.703125 121.179688 0.878906 122.640625 1.089844 C 124.105469 1.300781 125.558594 1.550781 127.011719 1.832031 C 128.460938 2.113281 129.902344 2.429688 131.335938 2.777344 C 132.769531 3.128906 134.195312 3.515625 135.609375 3.933594 C 137.023438 4.351562 138.425781 4.804688 139.816406 5.292969 C 141.210938 5.777344 142.589844 6.296875 143.953125 6.847656 C 145.320312 7.402344 146.671875 7.984375 148.007812 8.601562 C 149.34375 9.21875 150.664062 9.871094 151.964844 10.550781 C 153.269531 11.230469 154.554688 11.941406 155.824219 12.683594 C 157.089844 13.425781 158.339844 14.195312 159.570312 15 C 160.796875 15.800781 162.007812 16.632812 163.195312 17.492188 C 164.382812 18.351562 165.546875 19.238281 166.6875 20.15625 C 167.832031 21.070312 168.949219 22.011719 170.046875 22.980469 C 171.140625 23.953125 172.210938 24.945312 173.257812 25.96875 C 174.300781 26.988281 175.320312 28.03125 176.3125 29.101562 C 177.304688 30.171875 178.269531 31.265625 179.207031 32.378906 C 180.148438 33.496094 181.054688 34.632812 181.9375 35.792969 C 182.816406 36.953125 183.667969 38.132812 184.488281 39.332031 C 185.308594 40.53125 186.101562 41.75 186.859375 42.988281 C 187.621094 44.226562 188.347656 45.480469 189.046875 46.753906 C 189.742188 48.027344 190.40625 49.316406 191.039062 50.621094 C 191.671875 51.925781 192.269531 53.246094 192.835938 54.578125 C 193.402344 55.910156 193.933594 57.257812 194.429688 58.617188 C 194.929688 59.976562 195.390625 61.347656 195.820312 62.726562 C 196.25 64.109375 196.644531 65.5 197.003906 66.898438 C 197.363281 68.300781 197.6875 69.707031 197.976562 71.121094 C 198.265625 72.539062 198.515625 73.960938 198.734375 75.386719 C 198.949219 76.816406 199.132812 78.246094 199.277344 79.683594 C 199.421875 81.121094 199.53125 82.558594 199.601562 84 C 199.675781 85.441406 199.710938 86.886719 199.710938 88.328125 Z M 199.710938 88.328125 " fill-opacity="1" fill-rule="nonzero"/><path fill="#ffffff" d="M 185.589844 87.972656 C 185.589844 89.183594 185.558594 90.394531 185.496094 91.605469 C 185.4375 92.816406 185.34375 94.023438 185.222656 95.230469 C 185.101562 96.4375 184.949219 97.636719 184.765625 98.835938 C 184.585938 100.035156 184.375 101.230469 184.132812 102.417969 C 183.890625 103.605469 183.617188 104.789062 183.316406 105.964844 C 183.015625 107.136719 182.683594 108.304688 182.324219 109.464844 C 181.960938 110.625 181.574219 111.773438 181.15625 112.914062 C 180.738281 114.054688 180.292969 115.1875 179.816406 116.304688 C 179.339844 117.425781 178.839844 118.53125 178.308594 119.628906 C 177.777344 120.722656 177.21875 121.804688 176.632812 122.875 C 176.050781 123.941406 175.4375 124.996094 174.800781 126.035156 C 174.164062 127.074219 173.5 128.097656 172.808594 129.105469 C 172.121094 130.113281 171.40625 131.105469 170.664062 132.078125 C 169.925781 133.050781 169.164062 134.003906 168.375 134.941406 C 167.589844 135.878906 166.777344 136.796875 165.945312 137.695312 C 165.113281 138.589844 164.257812 139.46875 163.378906 140.324219 C 162.5 141.183594 161.601562 142.019531 160.683594 142.832031 C 159.765625 143.644531 158.824219 144.4375 157.867188 145.203125 C 156.90625 145.972656 155.929688 146.71875 154.929688 147.441406 C 153.933594 148.164062 152.921875 148.859375 151.886719 149.53125 C 150.855469 150.207031 149.808594 150.855469 148.742188 151.476562 C 147.679688 152.101562 146.601562 152.695312 145.507812 153.269531 C 144.410156 153.839844 143.304688 154.382812 142.179688 154.902344 C 141.058594 155.421875 139.925781 155.910156 138.777344 156.375 C 137.632812 156.839844 136.476562 157.273438 135.304688 157.683594 C 134.136719 158.089844 132.960938 158.472656 131.773438 158.824219 C 130.585938 159.175781 129.390625 159.496094 128.1875 159.792969 C 126.980469 160.085938 125.773438 160.351562 124.554688 160.589844 C 123.335938 160.824219 122.113281 161.03125 120.886719 161.210938 C 119.660156 161.386719 118.429688 161.535156 117.195312 161.652344 C 115.957031 161.773438 114.722656 161.863281 113.480469 161.921875 C 112.242188 161.980469 111.003906 162.011719 109.761719 162.011719 C 108.519531 162.011719 107.28125 161.980469 106.039062 161.921875 C 104.800781 161.863281 103.5625 161.773438 102.328125 161.652344 C 101.09375 161.535156 99.863281 161.386719 98.636719 161.210938 C 97.40625 161.03125 96.183594 160.824219 94.96875 160.589844 C 93.75 160.351562 92.539062 160.085938 91.335938 159.792969 C 90.132812 159.496094 88.9375 159.175781 87.75 158.824219 C 86.5625 158.472656 85.382812 158.089844 84.214844 157.683594 C 83.046875 157.273438 81.890625 156.839844 80.742188 156.375 C 79.597656 155.910156 78.464844 155.421875 77.339844 154.902344 C 76.21875 154.382812 75.113281 153.839844 74.015625 153.269531 C 72.921875 152.695312 71.84375 152.101562 70.777344 151.476562 C 69.714844 150.855469 68.667969 150.207031 67.632812 149.53125 C 66.601562 148.859375 65.589844 148.164062 64.589844 147.441406 C 63.59375 146.71875 62.617188 145.972656 61.65625 145.203125 C 60.699219 144.4375 59.757812 143.644531 58.839844 142.832031 C 57.917969 142.019531 57.019531 141.183594 56.144531 140.324219 C 55.265625 139.46875 54.410156 138.589844 53.578125 137.695312 C 52.742188 136.796875 51.933594 135.878906 51.148438 134.941406 C 50.359375 134.003906 49.597656 133.050781 48.855469 132.078125 C 48.117188 131.105469 47.402344 130.113281 46.714844 129.105469 C 46.023438 128.097656 45.359375 127.074219 44.722656 126.035156 C 44.085938 124.996094 43.472656 123.941406 42.886719 122.875 C 42.304688 121.804688 41.746094 120.722656 41.214844 119.628906 C 40.683594 118.53125 40.179688 117.425781 39.707031 116.304688 C 39.230469 115.1875 38.785156 114.054688 38.367188 112.914062 C 37.949219 111.773438 37.558594 110.625 37.199219 109.464844 C 36.839844 108.304688 36.507812 107.136719 36.207031 105.964844 C 35.90625 104.789062 35.632812 103.605469 35.390625 102.417969 C 35.148438 101.230469 34.9375 100.035156 34.753906 98.835938 C 34.574219 97.636719 34.421875 96.4375 34.300781 95.230469 C 34.179688 94.023438 34.085938 92.816406 34.027344 91.605469 C 33.964844 90.394531 33.933594 89.183594 33.933594 87.972656 C 33.933594 86.761719 33.964844 85.550781 34.027344 84.339844 C 34.085938 83.128906 34.179688 81.921875 34.300781 80.714844 C 34.421875 79.511719 34.574219 78.308594 34.753906 77.109375 C 34.9375 75.910156 35.148438 74.71875 35.390625 73.53125 C 35.632812 72.339844 35.90625 71.160156 36.207031 69.984375 C 36.507812 68.808594 36.839844 67.640625 37.199219 66.480469 C 37.558594 65.320312 37.949219 64.171875 38.367188 63.03125 C 38.785156 61.890625 39.230469 60.761719 39.707031 59.640625 C 40.179688 58.519531 40.683594 57.414062 41.214844 56.316406 C 41.746094 55.222656 42.304688 54.140625 42.886719 53.074219 C 43.472656 52.003906 44.085938 50.949219 44.722656 49.910156 C 45.359375 48.871094 46.023438 47.847656 46.714844 46.839844 C 47.402344 45.832031 48.117188 44.84375 48.855469 43.871094 C 49.597656 42.894531 50.359375 41.941406 51.148438 41.003906 C 51.933594 40.066406 52.742188 39.152344 53.578125 38.253906 C 54.410156 37.355469 55.265625 36.476562 56.144531 35.621094 C 57.019531 34.765625 57.917969 33.929688 58.839844 33.117188 C 59.757812 32.300781 60.699219 31.511719 61.65625 30.742188 C 62.617188 29.972656 63.59375 29.226562 64.589844 28.507812 C 65.589844 27.785156 66.601562 27.085938 67.632812 26.414062 C 68.667969 25.742188 69.714844 25.09375 70.777344 24.46875 C 71.84375 23.847656 72.921875 23.25 74.015625 22.679688 C 75.113281 22.105469 76.21875 21.5625 77.339844 21.042969 C 78.464844 20.527344 79.597656 20.035156 80.742188 19.570312 C 81.890625 19.109375 83.046875 18.671875 84.214844 18.265625 C 85.382812 17.855469 86.5625 17.476562 87.75 17.125 C 88.9375 16.773438 90.132812 16.449219 91.335938 16.15625 C 92.539062 15.859375 93.75 15.59375 94.96875 15.359375 C 96.183594 15.121094 97.40625 14.914062 98.636719 14.738281 C 99.863281 14.558594 101.09375 14.410156 102.328125 14.292969 C 103.5625 14.171875 104.800781 14.085938 106.039062 14.023438 C 107.28125 13.964844 108.519531 13.9375 109.761719 13.9375 C 111.003906 13.9375 112.242188 13.964844 113.480469 14.023438 C 114.722656 14.085938 115.957031 14.171875 117.195312 14.292969 C 118.429688 14.410156 119.660156 14.558594 120.886719 14.738281 C 122.113281 14.914062 123.335938 15.121094 124.554688 15.359375 C 125.773438 15.59375 126.980469 15.859375 128.1875 16.15625 C 129.390625 16.449219 130.585938 16.773438 131.773438 17.125 C 132.960938 17.476562 134.136719 17.855469 135.304688 18.265625 C 136.476562 18.671875 137.632812 19.109375 138.777344 19.570312 C 139.925781 20.035156 141.058594 20.527344 142.179688 21.042969 C 143.304688 21.5625 144.410156 22.105469 145.507812 22.679688 C 146.601562 23.25 147.679688 23.847656 148.742188 24.46875 C 149.808594 25.09375 150.855469 25.742188 151.886719 26.414062 C 152.921875 27.085938 153.933594 27.785156 154.929688 28.507812 C 155.929688 29.226562 156.90625 29.972656 157.867188 30.742188 C 158.824219 31.511719 159.765625 32.300781 160.683594 33.117188 C 161.601562 33.929688 162.5 34.765625 163.378906 35.621094 C 164.257812 36.476562 165.113281 37.355469 165.945312 38.253906 C 166.777344 39.152344 167.589844 40.066406 168.375 41.003906 C 169.164062 41.941406 169.925781 42.894531 170.664062 43.871094 C 171.40625 44.84375 172.121094 45.832031 172.808594 46.839844 C 173.5 47.847656 174.164062 48.871094 174.800781 49.910156 C 175.4375 50.949219 176.050781 52.003906 176.632812 53.074219 C 177.21875 54.140625 177.777344 55.222656 178.308594 56.316406 C 178.839844 57.414062 179.339844 58.519531 179.816406 59.640625 C 180.292969 60.761719 180.738281 61.890625 181.15625 63.03125 C 181.574219 64.171875 181.960938 65.320312 182.324219 66.480469 C 182.683594 67.640625 183.015625 68.808594 183.316406 69.984375 C 183.617188 71.160156 183.890625 72.339844 184.132812 73.53125 C 184.375 74.71875 184.585938 75.910156 184.765625 77.109375 C 184.949219 78.308594 185.101562 79.511719 185.222656 80.714844 C 185.34375 81.921875 185.4375 83.128906 185.496094 84.339844 C 185.558594 85.550781 185.589844 86.761719 185.589844 87.972656 Z M 185.589844 87.972656 " fill-opacity="1" fill-rule="nonzero"/><path fill="#83c5be" d="M 94.203125 233.386719 L 724.929688 233.386719 C 726.003906 233.386719 727.078125 233.414062 728.152344 233.464844 C 729.226562 233.519531 730.296875 233.597656 731.367188 233.703125 C 732.4375 233.808594 733.503906 233.941406 734.566406 234.097656 C 735.628906 234.257812 736.6875 234.441406 737.742188 234.648438 C 738.796875 234.859375 739.84375 235.09375 740.886719 235.355469 C 741.929688 235.617188 742.964844 235.902344 743.992188 236.214844 C 745.019531 236.527344 746.039062 236.867188 747.054688 237.226562 C 748.066406 237.589844 749.066406 237.976562 750.058594 238.386719 C 751.054688 238.800781 752.035156 239.234375 753.007812 239.695312 C 753.976562 240.152344 754.9375 240.636719 755.886719 241.144531 C 756.832031 241.652344 757.769531 242.179688 758.691406 242.734375 C 759.613281 243.285156 760.519531 243.859375 761.414062 244.457031 C 762.304688 245.054688 763.183594 245.675781 764.046875 246.316406 C 764.910156 246.957031 765.757812 247.617188 766.589844 248.296875 C 767.417969 248.980469 768.234375 249.683594 769.03125 250.40625 C 769.824219 251.125 770.605469 251.867188 771.363281 252.628906 C 772.125 253.386719 772.863281 254.167969 773.585938 254.964844 C 774.308594 255.761719 775.007812 256.574219 775.691406 257.40625 C 776.375 258.234375 777.035156 259.082031 777.675781 259.945312 C 778.316406 260.808594 778.933594 261.6875 779.53125 262.582031 C 780.128906 263.476562 780.703125 264.382812 781.253906 265.308594 C 781.808594 266.230469 782.335938 267.164062 782.84375 268.113281 C 783.351562 269.058594 783.832031 270.019531 784.292969 270.992188 C 784.75 271.964844 785.1875 272.945312 785.597656 273.941406 C 786.011719 274.933594 786.394531 275.9375 786.757812 276.949219 C 787.121094 277.960938 787.457031 278.980469 787.769531 280.011719 C 788.082031 281.039062 788.367188 282.074219 788.628906 283.117188 C 788.890625 284.160156 789.125 285.207031 789.335938 286.261719 C 789.546875 287.316406 789.730469 288.375 789.886719 289.441406 C 790.042969 290.503906 790.175781 291.570312 790.28125 292.640625 C 790.386719 293.710938 790.464844 294.78125 790.519531 295.855469 C 790.570312 296.929688 790.597656 298.003906 790.597656 299.078125 C 790.597656 300.152344 790.570312 301.230469 790.519531 302.300781 C 790.464844 303.375 790.386719 304.449219 790.28125 305.519531 C 790.175781 306.589844 790.042969 307.65625 789.886719 308.71875 C 789.730469 309.78125 789.546875 310.839844 789.335938 311.894531 C 789.125 312.949219 788.890625 313.996094 788.628906 315.039062 C 788.367188 316.082031 788.082031 317.121094 787.769531 318.148438 C 787.457031 319.175781 787.121094 320.199219 786.757812 321.210938 C 786.398438 322.222656 786.011719 323.226562 785.597656 324.21875 C 785.1875 325.210938 784.75 326.195312 784.292969 327.164062 C 783.832031 328.136719 783.351562 329.097656 782.84375 330.046875 C 782.335938 330.992188 781.808594 331.929688 781.253906 332.851562 C 780.703125 333.773438 780.128906 334.679688 779.53125 335.574219 C 778.933594 336.46875 778.316406 337.347656 777.675781 338.210938 C 777.035156 339.074219 776.375 339.921875 775.691406 340.753906 C 775.007812 341.585938 774.308594 342.398438 773.585938 343.195312 C 772.863281 343.992188 772.125 344.769531 771.363281 345.53125 C 770.605469 346.289062 769.824219 347.03125 769.03125 347.753906 C 768.234375 348.476562 767.417969 349.175781 766.589844 349.859375 C 765.757812 350.542969 764.910156 351.203125 764.046875 351.84375 C 763.183594 352.484375 762.304688 353.101562 761.414062 353.699219 C 760.519531 354.296875 759.613281 354.871094 758.691406 355.425781 C 757.769531 355.976562 756.832031 356.507812 755.886719 357.015625 C 754.9375 357.519531 753.976562 358.003906 753.007812 358.464844 C 752.035156 358.921875 751.054688 359.359375 750.058594 359.769531 C 749.066406 360.183594 748.066406 360.570312 747.054688 360.929688 C 746.039062 361.292969 745.019531 361.628906 743.992188 361.941406 C 742.964844 362.253906 741.929688 362.539062 740.886719 362.800781 C 739.84375 363.0625 738.796875 363.296875 737.742188 363.507812 C 736.6875 363.71875 735.628906 363.902344 734.566406 364.058594 C 733.503906 364.21875 732.4375 364.347656 731.367188 364.453125 C 730.296875 364.558594 729.226562 364.640625 728.152344 364.691406 C 727.078125 364.746094 726.003906 364.769531 724.929688 364.769531 L 94.203125 364.769531 Z M 94.203125 233.386719 " fill-opacity="1" fill-rule="nonzero"/><g clip-path="url(#d6253ad1d1)"><path fill="#6bafa5" d="M 198.867188 299.441406 C 198.867188 300.886719 198.832031 302.328125 198.761719 303.769531 C 198.6875 305.210938 198.578125 306.652344 198.433594 308.085938 C 198.289062 309.523438 198.109375 310.957031 197.890625 312.382812 C 197.675781 313.8125 197.421875 315.234375 197.132812 316.648438 C 196.84375 318.0625 196.519531 319.472656 196.160156 320.871094 C 195.800781 322.273438 195.410156 323.664062 194.980469 325.042969 C 194.550781 326.425781 194.085938 327.792969 193.589844 329.152344 C 193.089844 330.511719 192.558594 331.859375 191.992188 333.191406 C 191.425781 334.527344 190.828125 335.84375 190.195312 337.148438 C 189.566406 338.453125 188.898438 339.742188 188.203125 341.015625 C 187.507812 342.289062 186.777344 343.542969 186.019531 344.78125 C 185.257812 346.019531 184.46875 347.238281 183.648438 348.441406 C 182.824219 349.640625 181.972656 350.820312 181.09375 351.980469 C 180.214844 353.136719 179.304688 354.277344 178.367188 355.390625 C 177.429688 356.507812 176.464844 357.597656 175.472656 358.667969 C 174.476562 359.738281 173.460938 360.785156 172.414062 361.804688 C 171.367188 362.824219 170.296875 363.820312 169.203125 364.789062 C 168.109375 365.757812 166.988281 366.699219 165.847656 367.617188 C 164.703125 368.53125 163.539062 369.417969 162.351562 370.277344 C 161.164062 371.140625 159.957031 371.96875 158.726562 372.773438 C 157.496094 373.574219 156.25 374.34375 154.980469 375.085938 C 153.714844 375.828125 152.429688 376.539062 151.125 377.222656 C 149.820312 377.902344 148.5 378.550781 147.164062 379.167969 C 145.828125 379.785156 144.476562 380.371094 143.113281 380.921875 C 141.746094 381.472656 140.367188 381.992188 138.976562 382.480469 C 137.582031 382.964844 136.179688 383.417969 134.765625 383.835938 C 133.351562 384.257812 131.925781 384.640625 130.492188 384.992188 C 129.058594 385.34375 127.617188 385.660156 126.167969 385.941406 C 124.71875 386.222656 123.261719 386.46875 121.800781 386.679688 C 120.335938 386.890625 118.871094 387.070312 117.398438 387.210938 C 115.929688 387.351562 114.457031 387.457031 112.980469 387.527344 C 111.503906 387.597656 110.023438 387.636719 108.546875 387.636719 C 107.070312 387.636719 105.589844 387.597656 104.113281 387.527344 C 102.636719 387.457031 101.164062 387.351562 99.695312 387.210938 C 98.222656 387.070312 96.757812 386.890625 95.292969 386.679688 C 93.832031 386.46875 92.375 386.222656 90.925781 385.941406 C 89.476562 385.660156 88.035156 385.34375 86.601562 384.992188 C 85.167969 384.640625 83.742188 384.257812 82.328125 383.835938 C 80.914062 383.417969 79.511719 382.964844 78.117188 382.480469 C 76.726562 381.992188 75.347656 381.472656 73.980469 380.921875 C 72.617188 380.371094 71.265625 379.785156 69.929688 379.167969 C 68.59375 378.550781 67.273438 377.902344 65.96875 377.222656 C 64.664062 376.539062 63.378906 375.828125 62.113281 375.085938 C 60.84375 374.34375 59.597656 373.574219 58.367188 372.773438 C 57.136719 371.96875 55.929688 371.140625 54.742188 370.277344 C 53.554688 369.417969 52.390625 368.53125 51.246094 367.617188 C 50.105469 366.699219 48.984375 365.757812 47.890625 364.789062 C 46.796875 363.820312 45.726562 362.824219 44.679688 361.804688 C 43.632812 360.785156 42.617188 359.738281 41.621094 358.667969 C 40.628906 357.597656 39.664062 356.507812 38.726562 355.390625 C 37.789062 354.277344 36.878906 353.136719 36 351.980469 C 35.117188 350.820312 34.269531 349.640625 33.445312 348.441406 C 32.625 347.238281 31.835938 346.019531 31.074219 344.78125 C 30.316406 343.542969 29.585938 342.289062 28.890625 341.015625 C 28.191406 339.742188 27.527344 338.453125 26.898438 337.148438 C 26.265625 335.84375 25.667969 334.527344 25.101562 333.191406 C 24.535156 331.859375 24.003906 330.511719 23.503906 329.152344 C 23.007812 327.792969 22.542969 326.425781 22.113281 325.042969 C 21.683594 323.664062 21.289062 322.273438 20.933594 320.871094 C 20.574219 319.472656 20.25 318.0625 19.960938 316.648438 C 19.671875 315.234375 19.417969 313.8125 19.203125 312.382812 C 18.984375 310.957031 18.804688 309.523438 18.660156 308.085938 C 18.515625 306.652344 18.40625 305.210938 18.332031 303.769531 C 18.261719 302.328125 18.226562 300.886719 18.226562 299.441406 C 18.226562 298 18.261719 296.558594 18.332031 295.117188 C 18.40625 293.671875 18.515625 292.234375 18.660156 290.796875 C 18.804688 289.363281 18.984375 287.929688 19.203125 286.503906 C 19.417969 285.074219 19.671875 283.652344 19.960938 282.238281 C 20.25 280.820312 20.574219 279.414062 20.933594 278.015625 C 21.289062 276.613281 21.683594 275.222656 22.113281 273.84375 C 22.542969 272.460938 23.007812 271.089844 23.503906 269.730469 C 24.003906 268.371094 24.535156 267.027344 25.101562 265.691406 C 25.667969 264.359375 26.265625 263.039062 26.898438 261.734375 C 27.527344 260.429688 28.191406 259.140625 28.890625 257.871094 C 29.585938 256.597656 30.316406 255.339844 31.074219 254.101562 C 31.835938 252.863281 32.625 251.644531 33.445312 250.445312 C 34.269531 249.246094 35.117188 248.066406 36 246.90625 C 36.878906 245.746094 37.789062 244.609375 38.726562 243.496094 C 39.664062 242.378906 40.628906 241.285156 41.621094 240.214844 C 42.617188 239.148438 43.632812 238.101562 44.679688 237.082031 C 45.726562 236.0625 46.796875 235.066406 47.890625 234.097656 C 48.984375 233.128906 50.105469 232.183594 51.246094 231.269531 C 52.390625 230.355469 53.554688 229.464844 54.742188 228.605469 C 55.929688 227.746094 57.136719 226.914062 58.367188 226.113281 C 59.597656 225.3125 60.84375 224.539062 62.113281 223.796875 C 63.378906 223.054688 64.664062 222.34375 65.96875 221.664062 C 67.273438 220.984375 68.59375 220.335938 69.929688 219.71875 C 71.265625 219.101562 72.617188 218.515625 73.980469 217.964844 C 75.347656 217.410156 76.726562 216.890625 78.117188 216.40625 C 79.511719 215.917969 80.914062 215.46875 82.328125 215.046875 C 83.742188 214.628906 85.167969 214.246094 86.601562 213.894531 C 88.035156 213.542969 89.476562 213.226562 90.925781 212.945312 C 92.375 212.664062 93.832031 212.417969 95.292969 212.207031 C 96.757812 211.992188 98.222656 211.816406 99.695312 211.675781 C 101.164062 211.535156 102.636719 211.425781 104.113281 211.355469 C 105.589844 211.285156 107.070312 211.25 108.546875 211.25 C 110.023438 211.25 111.503906 211.285156 112.980469 211.355469 C 114.457031 211.425781 115.929688 211.535156 117.398438 211.675781 C 118.871094 211.816406 120.335938 211.992188 121.800781 212.207031 C 123.261719 212.417969 124.71875 212.664062 126.167969 212.945312 C 127.617188 213.226562 129.058594 213.542969 130.492188 213.894531 C 131.925781 214.246094 133.351562 214.628906 134.765625 215.046875 C 136.179688 215.46875 137.582031 215.917969 138.976562 216.40625 C 140.367188 216.890625 141.746094 217.410156 143.113281 217.964844 C 144.476562 218.515625 145.828125 219.101562 147.164062 219.71875 C 148.5 220.335938 149.820312 220.984375 151.125 221.664062 C 152.429688 222.34375 153.714844 223.054688 154.980469 223.796875 C 156.25 224.539062 157.496094 225.3125 158.726562 226.113281 C 159.957031 226.914062 161.164062 227.746094 162.351562 228.605469 C 163.539062 229.464844 164.703125 230.355469 165.847656 231.269531 C 166.988281 232.183594 168.109375 233.128906 169.203125 234.097656 C 170.296875 235.066406 171.367188 236.0625 172.414062 237.082031 C 173.460938 238.101562 174.476562 239.148438 175.472656 240.214844 C 176.464844 241.285156 177.429688 242.378906 178.367188 243.496094 C 179.304688 244.609375 180.214844 245.746094 181.09375 246.90625 C 181.972656 248.066406 182.824219 249.246094 183.648438 250.445312 C 184.46875 251.644531 185.257812 252.863281 186.019531 254.101562 C 186.777344 255.339844 187.507812 256.597656 188.203125 257.871094 C 188.898438 259.140625 189.566406 260.429688 190.195312 261.734375 C 190.828125 263.039062 191.425781 264.359375 191.992188 265.691406 C 192.558594 267.027344 193.089844 268.371094 193.589844 269.730469 C 194.085938 271.089844 194.550781 272.460938 194.980469 273.84375 C 195.410156 275.222656 195.800781 276.613281 196.160156 278.015625 C 196.519531 279.414062 196.84375 280.820312 197.132812 282.238281 C 197.421875 283.652344 197.675781 285.074219 197.890625 286.503906 C 198.109375 287.929688 198.289062 289.363281 198.433594 290.796875 C 198.578125 292.234375 198.6875 293.671875 198.761719 295.117188 C 198.832031 296.558594 198.867188 298 198.867188 299.441406 Z M 198.867188 299.441406 " fill-opacity="1" fill-rule="nonzero"/></g><path fill="#ffffff" d="M 184.746094 299.078125 C 184.746094 300.289062 184.714844 301.5 184.65625 302.710938 C 184.59375 303.921875 184.503906 305.128906 184.378906 306.335938 C 184.257812 307.542969 184.105469 308.742188 183.925781 309.941406 C 183.742188 311.140625 183.53125 312.335938 183.289062 313.523438 C 183.046875 314.710938 182.773438 315.894531 182.472656 317.070312 C 182.171875 318.242188 181.839844 319.410156 181.480469 320.570312 C 181.121094 321.730469 180.730469 322.878906 180.3125 324.023438 C 179.894531 325.164062 179.449219 326.292969 178.972656 327.410156 C 178.5 328.53125 177.996094 329.640625 177.464844 330.734375 C 176.933594 331.828125 176.378906 332.910156 175.792969 333.980469 C 175.207031 335.046875 174.597656 336.101562 173.957031 337.140625 C 173.320312 338.179688 172.65625 339.203125 171.964844 340.210938 C 171.277344 341.21875 170.5625 342.210938 169.824219 343.183594 C 169.085938 344.15625 168.320312 345.109375 167.535156 346.046875 C 166.746094 346.984375 165.9375 347.902344 165.101562 348.800781 C 164.269531 349.699219 163.414062 350.574219 162.535156 351.429688 C 161.660156 352.289062 160.761719 353.125 159.839844 353.9375 C 158.921875 354.75 157.980469 355.542969 157.023438 356.3125 C 156.0625 357.078125 155.085938 357.824219 154.089844 358.546875 C 153.09375 359.269531 152.078125 359.964844 151.046875 360.640625 C 150.015625 361.3125 148.964844 361.960938 147.902344 362.582031 C 146.835938 363.207031 145.757812 363.804688 144.664062 364.375 C 143.570312 364.945312 142.460938 365.488281 141.339844 366.007812 C 140.21875 366.527344 139.082031 367.015625 137.9375 367.480469 C 136.789062 367.945312 135.632812 368.378906 134.464844 368.789062 C 133.296875 369.195312 132.117188 369.578125 130.929688 369.929688 C 129.742188 370.28125 128.546875 370.601562 127.34375 370.898438 C 126.140625 371.191406 124.929688 371.457031 123.710938 371.695312 C 122.496094 371.929688 121.273438 372.136719 120.046875 372.316406 C 118.816406 372.492188 117.585938 372.640625 116.351562 372.761719 C 115.117188 372.878906 113.878906 372.96875 112.640625 373.027344 C 111.398438 373.085938 110.160156 373.117188 108.917969 373.117188 C 107.679688 373.117188 106.4375 373.085938 105.199219 373.027344 C 103.960938 372.96875 102.722656 372.878906 101.488281 372.761719 C 100.25 372.640625 99.019531 372.492188 97.792969 372.316406 C 96.566406 372.136719 95.34375 371.929688 94.125 371.695312 C 92.910156 371.457031 91.699219 371.191406 90.496094 370.898438 C 89.292969 370.601562 88.09375 370.28125 86.90625 369.929688 C 85.71875 369.578125 84.542969 369.195312 83.375 368.789062 C 82.207031 368.378906 81.046875 367.945312 79.902344 367.480469 C 78.753906 367.015625 77.621094 366.527344 76.5 366.007812 C 75.378906 365.488281 74.269531 364.945312 73.175781 364.375 C 72.082031 363.804688 71 363.207031 69.9375 362.582031 C 68.871094 361.960938 67.824219 361.3125 66.792969 360.640625 C 65.761719 359.964844 64.746094 359.269531 63.75 358.546875 C 62.753906 357.824219 61.773438 357.078125 60.816406 356.3125 C 59.855469 355.542969 58.917969 354.75 57.996094 353.9375 C 57.078125 353.125 56.179688 352.289062 55.300781 351.429688 C 54.425781 350.574219 53.570312 349.699219 52.734375 348.800781 C 51.902344 347.902344 51.089844 346.984375 50.304688 346.046875 C 49.515625 345.109375 48.753906 344.15625 48.015625 343.183594 C 47.273438 342.210938 46.5625 341.21875 45.871094 340.210938 C 45.183594 339.203125 44.519531 338.179688 43.878906 337.140625 C 43.242188 336.101562 42.632812 335.046875 42.046875 333.980469 C 41.460938 332.910156 40.902344 331.828125 40.371094 330.734375 C 39.84375 329.640625 39.339844 328.53125 38.863281 327.410156 C 38.390625 326.292969 37.941406 325.164062 37.523438 324.023438 C 37.105469 322.878906 36.71875 321.730469 36.359375 320.570312 C 35.996094 319.410156 35.667969 318.242188 35.363281 317.070312 C 35.0625 315.894531 34.792969 314.710938 34.550781 313.523438 C 34.308594 312.335938 34.09375 311.140625 33.914062 309.941406 C 33.730469 308.742188 33.578125 307.542969 33.457031 306.335938 C 33.335938 305.128906 33.246094 303.921875 33.183594 302.710938 C 33.121094 301.5 33.09375 300.289062 33.09375 299.078125 C 33.09375 297.867188 33.121094 296.65625 33.183594 295.445312 C 33.246094 294.234375 33.335938 293.027344 33.457031 291.820312 C 33.578125 290.617188 33.730469 289.414062 33.914062 288.214844 C 34.09375 287.015625 34.308594 285.824219 34.550781 284.636719 C 34.792969 283.445312 35.0625 282.265625 35.363281 281.089844 C 35.667969 279.914062 35.996094 278.746094 36.359375 277.585938 C 36.71875 276.425781 37.105469 275.277344 37.523438 274.136719 C 37.941406 272.996094 38.390625 271.867188 38.863281 270.746094 C 39.339844 269.625 39.84375 268.519531 40.371094 267.425781 C 40.902344 266.328125 41.460938 265.246094 42.046875 264.179688 C 42.632812 263.109375 43.242188 262.054688 43.878906 261.015625 C 44.519531 259.976562 45.183594 258.953125 45.871094 257.945312 C 46.5625 256.9375 47.273438 255.949219 48.015625 254.976562 C 48.753906 254 49.515625 253.046875 50.304688 252.109375 C 51.089844 251.171875 51.902344 250.257812 52.734375 249.359375 C 53.570312 248.460938 54.425781 247.582031 55.300781 246.726562 C 56.179688 245.871094 57.078125 245.035156 57.996094 244.222656 C 58.917969 243.40625 59.855469 242.617188 60.816406 241.847656 C 61.773438 241.078125 62.753906 240.332031 63.75 239.613281 C 64.746094 238.890625 65.761719 238.191406 66.792969 237.519531 C 67.824219 236.847656 68.871094 236.199219 69.9375 235.574219 C 71 234.953125 72.082031 234.355469 73.175781 233.785156 C 74.269531 233.210938 75.378906 232.667969 76.5 232.148438 C 77.621094 231.632812 78.753906 231.140625 79.902344 230.675781 C 81.046875 230.214844 82.207031 229.777344 83.375 229.371094 C 84.542969 228.960938 85.71875 228.582031 86.90625 228.230469 C 88.09375 227.878906 89.292969 227.554688 90.496094 227.261719 C 91.699219 226.964844 92.910156 226.699219 94.125 226.464844 C 95.34375 226.226562 96.566406 226.019531 97.792969 225.84375 C 99.019531 225.664062 100.25 225.515625 101.488281 225.398438 C 102.722656 225.28125 103.960938 225.191406 105.199219 225.132812 C 106.4375 225.070312 107.679688 225.042969 108.917969 225.042969 C 110.160156 225.042969 111.398438 225.070312 112.640625 225.132812 C 113.878906 225.191406 115.117188 225.28125 116.351562 225.398438 C 117.585938 225.515625 118.816406 225.664062 120.046875 225.84375 C 121.273438 226.019531 122.496094 226.226562 123.710938 226.464844 C 124.929688 226.699219 126.140625 226.964844 127.34375 227.261719 C 128.546875 227.554688 129.742188 227.878906 130.929688 228.230469 C 132.117188 228.582031 133.296875 228.960938 134.464844 229.371094 C 135.632812 229.777344 136.789062 230.214844 137.9375 230.675781 C 139.082031 231.140625 140.21875 231.632812 141.339844 232.148438 C 142.460938 232.667969 143.570312 233.210938 144.664062 233.785156 C 145.757812 234.355469 146.835938 234.953125 147.902344 235.574219 C 148.964844 236.199219 150.015625 236.847656 151.046875 237.519531 C 152.078125 238.191406 153.09375 238.890625 154.089844 239.613281 C 155.085938 240.332031 156.0625 241.078125 157.023438 241.847656 C 157.980469 242.617188 158.921875 243.40625 159.839844 244.222656 C 160.761719 245.035156 161.660156 245.871094 162.535156 246.726562 C 163.414062 247.582031 164.269531 248.460938 165.101562 249.359375 C 165.9375 250.257812 166.746094 251.171875 167.535156 252.109375 C 168.320312 253.046875 169.085938 254 169.824219 254.976562 C 170.5625 255.949219 171.277344 256.9375 171.964844 257.945312 C 172.65625 258.953125 173.320312 259.976562 173.957031 261.015625 C 174.597656 262.054688 175.207031 263.109375 175.792969 264.179688 C 176.378906 265.246094 176.933594 266.328125 177.464844 267.425781 C 177.996094 268.519531 178.5 269.625 178.972656 270.746094 C 179.449219 271.867188 179.894531 272.996094 180.3125 274.136719 C 180.730469 275.277344 181.121094 276.425781 181.480469 277.585938 C 181.839844 278.746094 182.171875 279.914062 182.472656 281.089844 C 182.773438 282.265625 183.046875 283.445312 183.289062 284.636719 C 183.53125 285.824219 183.742188 287.015625 183.925781 288.214844 C 184.105469 289.414062 184.257812 290.617188 184.378906 291.820312 C 184.503906 293.027344 184.59375 294.234375 184.65625 295.445312 C 184.714844 296.65625 184.746094 297.867188 184.746094 299.078125 Z M 184.746094 299.078125 " fill-opacity="1" fill-rule="nonzero"/><g clip-path="url(#b3a83927df)"><path fill="#e29578" d="M 95.042969 444.464844 L 725.78125 444.464844 C 726.855469 444.464844 727.929688 444.492188 729.003906 444.546875 C 730.078125 444.597656 731.148438 444.675781 732.21875 444.78125 C 733.289062 444.886719 734.355469 445.019531 735.417969 445.175781 C 736.480469 445.335938 737.539062 445.519531 738.59375 445.730469 C 739.644531 445.9375 740.695312 446.175781 741.738281 446.433594 C 742.78125 446.695312 743.816406 446.984375 744.84375 447.296875 C 745.871094 447.605469 746.890625 447.945312 747.902344 448.304688 C 748.914062 448.667969 749.917969 449.054688 750.910156 449.46875 C 751.902344 449.878906 752.886719 450.3125 753.859375 450.773438 C 754.828125 451.234375 755.789062 451.714844 756.738281 452.222656 C 757.683594 452.730469 758.617188 453.261719 759.539062 453.8125 C 760.460938 454.367188 761.371094 454.941406 762.265625 455.539062 C 763.15625 456.136719 764.035156 456.753906 764.898438 457.394531 C 765.761719 458.035156 766.609375 458.695312 767.441406 459.378906 C 768.269531 460.058594 769.085938 460.761719 769.878906 461.484375 C 770.675781 462.207031 771.453125 462.945312 772.214844 463.707031 C 772.976562 464.46875 773.714844 465.246094 774.4375 466.042969 C 775.160156 466.839844 775.859375 467.652344 776.542969 468.484375 C 777.222656 469.316406 777.886719 470.160156 778.527344 471.027344 C 779.164062 471.890625 779.785156 472.769531 780.382812 473.660156 C 780.976562 474.554688 781.554688 475.464844 782.105469 476.386719 C 782.660156 477.308594 783.1875 478.242188 783.695312 479.191406 C 784.199219 480.140625 784.683594 481.097656 785.144531 482.070312 C 785.601562 483.042969 786.039062 484.027344 786.449219 485.019531 C 786.859375 486.011719 787.246094 487.015625 787.609375 488.027344 C 787.972656 489.039062 788.308594 490.058594 788.621094 491.089844 C 788.933594 492.117188 789.21875 493.152344 789.480469 494.195312 C 789.742188 495.238281 789.976562 496.289062 790.1875 497.34375 C 790.394531 498.398438 790.578125 499.457031 790.738281 500.519531 C 790.894531 501.582031 791.027344 502.648438 791.132812 503.71875 C 791.238281 504.789062 791.316406 505.859375 791.371094 506.933594 C 791.421875 508.007812 791.449219 509.082031 791.449219 510.160156 C 791.449219 511.234375 791.421875 512.308594 791.371094 513.382812 C 791.316406 514.457031 791.238281 515.527344 791.132812 516.597656 C 791.027344 517.667969 790.894531 518.734375 790.738281 519.796875 C 790.578125 520.859375 790.394531 521.917969 790.1875 522.972656 C 789.976562 524.027344 789.742188 525.078125 789.480469 526.121094 C 789.21875 527.164062 788.933594 528.199219 788.621094 529.226562 C 788.308594 530.257812 787.972656 531.277344 787.609375 532.289062 C 787.246094 533.300781 786.859375 534.304688 786.449219 535.296875 C 786.039062 536.289062 785.601562 537.273438 785.144531 538.246094 C 784.683594 539.21875 784.199219 540.175781 783.695312 541.125 C 783.1875 542.074219 782.65625 543.007812 782.105469 543.929688 C 781.554688 544.851562 780.976562 545.761719 780.382812 546.65625 C 779.785156 547.546875 779.164062 548.425781 778.527344 549.289062 C 777.886719 550.152344 777.222656 551 776.542969 551.832031 C 775.859375 552.664062 775.160156 553.476562 774.4375 554.273438 C 773.714844 555.070312 772.976562 555.847656 772.214844 556.609375 C 771.453125 557.371094 770.675781 558.109375 769.878906 558.832031 C 769.085938 559.554688 768.269531 560.257812 767.441406 560.9375 C 766.609375 561.621094 765.761719 562.28125 764.898438 562.921875 C 764.035156 563.5625 763.15625 564.179688 762.265625 564.777344 C 761.371094 565.375 760.460938 565.949219 759.539062 566.503906 C 758.617188 567.054688 757.683594 567.585938 756.738281 568.09375 C 755.789062 568.601562 754.828125 569.082031 753.859375 569.542969 C 752.886719 570.003906 751.902344 570.4375 750.910156 570.847656 C 749.917969 571.261719 748.914062 571.648438 747.902344 572.011719 C 746.890625 572.371094 745.871094 572.710938 744.84375 573.019531 C 743.816406 573.332031 742.78125 573.621094 741.738281 573.882812 C 740.695312 574.140625 739.644531 574.378906 738.59375 574.585938 C 737.539062 574.796875 736.480469 574.980469 735.417969 575.140625 C 734.355469 575.296875 733.289062 575.429688 732.21875 575.535156 C 731.148438 575.640625 730.078125 575.71875 729.003906 575.769531 C 727.929688 575.824219 726.855469 575.851562 725.78125 575.851562 L 95.042969 575.851562 Z M 95.042969 444.464844 " fill-opacity="1" fill-rule="nonzero"/></g><path fill="#cc7e66" d="M 199.710938 510.558594 C 199.710938 512 199.675781 513.441406 199.601562 514.882812 C 199.53125 516.328125 199.421875 517.765625 199.277344 519.203125 C 199.132812 520.636719 198.949219 522.070312 198.734375 523.496094 C 198.515625 524.925781 198.265625 526.347656 197.976562 527.761719 C 197.6875 529.179688 197.363281 530.585938 197.003906 531.984375 C 196.644531 533.386719 196.25 534.777344 195.820312 536.15625 C 195.390625 537.539062 194.929688 538.910156 194.429688 540.269531 C 193.933594 541.628906 193.402344 542.972656 192.835938 544.308594 C 192.269531 545.640625 191.671875 546.960938 191.039062 548.265625 C 190.40625 549.570312 189.742188 550.859375 189.046875 552.128906 C 188.347656 553.402344 187.621094 554.660156 186.859375 555.898438 C 186.101562 557.136719 185.308594 558.355469 184.488281 559.554688 C 183.667969 560.753906 182.816406 561.933594 181.9375 563.09375 C 181.054688 564.253906 180.148438 565.390625 179.207031 566.503906 C 178.269531 567.621094 177.304688 568.714844 176.3125 569.785156 C 175.320312 570.851562 174.300781 571.898438 173.257812 572.917969 C 172.210938 573.9375 171.140625 574.933594 170.046875 575.902344 C 168.949219 576.871094 167.832031 577.816406 166.6875 578.730469 C 165.546875 579.644531 164.382812 580.535156 163.195312 581.394531 C 162.007812 582.253906 160.796875 583.085938 159.570312 583.886719 C 158.339844 584.6875 157.089844 585.460938 155.824219 586.203125 C 154.554688 586.945312 153.269531 587.65625 151.964844 588.335938 C 150.664062 589.015625 149.34375 589.664062 148.007812 590.28125 C 146.671875 590.898438 145.320312 591.484375 143.953125 592.035156 C 142.589844 592.589844 141.210938 593.109375 139.816406 593.59375 C 138.425781 594.082031 137.023438 594.53125 135.609375 594.953125 C 134.195312 595.371094 132.769531 595.753906 131.335938 596.105469 C 129.902344 596.457031 128.460938 596.773438 127.011719 597.054688 C 125.558594 597.335938 124.105469 597.582031 122.640625 597.792969 C 121.179688 598.007812 119.714844 598.183594 118.242188 598.324219 C 116.769531 598.464844 115.296875 598.574219 113.820312 598.644531 C 112.34375 598.714844 110.867188 598.75 109.390625 598.75 C 107.910156 598.75 106.433594 598.714844 104.957031 598.644531 C 103.480469 598.574219 102.007812 598.464844 100.535156 598.324219 C 99.066406 598.183594 97.597656 598.007812 96.136719 597.792969 C 94.675781 597.582031 93.21875 597.335938 91.769531 597.054688 C 90.320312 596.773438 88.875 596.457031 87.441406 596.105469 C 86.007812 595.753906 84.585938 595.371094 83.171875 594.953125 C 81.753906 594.53125 80.351562 594.082031 78.960938 593.59375 C 77.570312 593.109375 76.191406 592.589844 74.824219 592.035156 C 73.457031 591.484375 72.109375 590.898438 70.773438 590.28125 C 69.433594 589.664062 68.117188 589.015625 66.8125 588.335938 C 65.507812 587.65625 64.222656 586.945312 62.953125 586.203125 C 61.6875 585.460938 60.4375 584.6875 59.207031 583.886719 C 57.980469 583.085938 56.773438 582.253906 55.585938 581.394531 C 54.398438 580.535156 53.230469 579.644531 52.089844 578.730469 C 50.945312 577.816406 49.828125 576.871094 48.734375 575.902344 C 47.636719 574.933594 46.566406 573.9375 45.523438 572.917969 C 44.476562 571.898438 43.457031 570.851562 42.464844 569.785156 C 41.472656 568.714844 40.507812 567.621094 39.570312 566.503906 C 38.632812 565.390625 37.722656 564.253906 36.84375 563.09375 C 35.960938 561.933594 35.109375 560.753906 34.289062 559.554688 C 33.46875 558.355469 32.675781 557.136719 31.917969 555.898438 C 31.15625 554.660156 30.429688 553.402344 29.730469 552.128906 C 29.035156 550.859375 28.371094 549.570312 27.738281 548.265625 C 27.105469 546.960938 26.507812 545.640625 25.941406 544.308594 C 25.375 542.972656 24.84375 541.628906 24.347656 540.269531 C 23.847656 538.910156 23.386719 537.539062 22.957031 536.15625 C 22.527344 534.777344 22.132812 533.386719 21.773438 531.984375 C 21.414062 530.585938 21.089844 529.179688 20.800781 527.761719 C 20.515625 526.347656 20.261719 524.925781 20.042969 523.496094 C 19.828125 522.070312 19.648438 520.636719 19.503906 519.203125 C 19.355469 517.765625 19.25 516.328125 19.175781 514.882812 C 19.101562 513.441406 19.066406 512 19.066406 510.558594 C 19.066406 509.113281 19.101562 507.671875 19.175781 506.230469 C 19.25 504.789062 19.355469 503.347656 19.503906 501.914062 C 19.648438 500.476562 19.828125 499.042969 20.042969 497.617188 C 20.261719 496.1875 20.515625 494.765625 20.800781 493.351562 C 21.089844 491.9375 21.414062 490.527344 21.773438 489.128906 C 22.132812 487.726562 22.527344 486.335938 22.957031 484.957031 C 23.386719 483.574219 23.847656 482.207031 24.347656 480.847656 C 24.84375 479.488281 25.375 478.140625 25.941406 476.808594 C 26.507812 475.472656 27.105469 474.15625 27.738281 472.851562 C 28.371094 471.546875 29.035156 470.257812 29.730469 468.984375 C 30.429688 467.710938 31.15625 466.457031 31.917969 465.21875 C 32.675781 463.980469 33.46875 462.761719 34.289062 461.558594 C 35.109375 460.359375 35.960938 459.179688 36.84375 458.019531 C 37.722656 456.863281 38.632812 455.726562 39.570312 454.609375 C 40.507812 453.492188 41.472656 452.402344 42.464844 451.332031 C 43.457031 450.261719 44.476562 449.214844 45.523438 448.195312 C 46.566406 447.175781 47.636719 446.179688 48.734375 445.210938 C 49.828125 444.242188 50.945312 443.300781 52.089844 442.382812 C 53.230469 441.46875 54.398438 440.582031 55.585938 439.722656 C 56.773438 438.859375 57.980469 438.03125 59.207031 437.226562 C 60.4375 436.425781 61.6875 435.65625 62.953125 434.914062 C 64.222656 434.171875 65.507812 433.460938 66.8125 432.777344 C 68.117188 432.097656 69.433594 431.449219 70.773438 430.832031 C 72.109375 430.214844 73.457031 429.628906 74.824219 429.078125 C 76.191406 428.527344 77.570312 428.007812 78.960938 427.519531 C 80.351562 427.035156 81.753906 426.582031 83.171875 426.164062 C 84.585938 425.742188 86.007812 425.359375 87.441406 425.007812 C 88.875 424.65625 90.320312 424.339844 91.769531 424.058594 C 93.21875 423.777344 94.675781 423.53125 96.136719 423.320312 C 97.597656 423.109375 99.066406 422.929688 100.535156 422.789062 C 102.007812 422.648438 103.480469 422.542969 104.957031 422.472656 C 106.433594 422.402344 107.910156 422.367188 109.390625 422.367188 C 110.867188 422.367188 112.34375 422.402344 113.820312 422.472656 C 115.296875 422.542969 116.769531 422.648438 118.242188 422.789062 C 119.714844 422.929688 121.179688 423.109375 122.640625 423.320312 C 124.105469 423.53125 125.558594 423.777344 127.011719 424.058594 C 128.460938 424.339844 129.902344 424.65625 131.335938 425.007812 C 132.769531 425.359375 134.195312 425.742188 135.609375 426.164062 C 137.023438 426.582031 138.425781 427.035156 139.816406 427.519531 C 141.210938 428.007812 142.589844 428.527344 143.953125 429.078125 C 145.320312 429.628906 146.671875 430.214844 148.007812 430.832031 C 149.34375 431.449219 150.664062 432.097656 151.964844 432.777344 C 153.269531 433.460938 154.554688 434.171875 155.824219 434.914062 C 157.089844 435.65625 158.339844 436.425781 159.570312 437.226562 C 160.796875 438.03125 162.007812 438.859375 163.195312 439.722656 C 164.382812 440.582031 165.546875 441.46875 166.6875 442.382812 C 167.832031 443.300781 168.949219 444.242188 170.046875 445.210938 C 171.140625 446.179688 172.210938 447.175781 173.257812 448.195312 C 174.300781 449.214844 175.320312 450.261719 176.3125 451.332031 C 177.304688 452.402344 178.269531 453.492188 179.207031 454.609375 C 180.148438 455.722656 181.054688 456.863281 181.9375 458.019531 C 182.816406 459.179688 183.667969 460.359375 184.488281 461.558594 C 185.308594 462.761719 186.101562 463.980469 186.859375 465.21875 C 187.621094 466.457031 188.347656 467.710938 189.046875 468.984375 C 189.742188 470.257812 190.40625 471.546875 191.039062 472.851562 C 191.671875 474.15625 192.269531 475.472656 192.835938 476.808594 C 193.402344 478.140625 193.933594 479.488281 194.429688 480.847656 C 194.929688 482.207031 195.390625 483.574219 195.820312 484.957031 C 196.25 486.335938 196.644531 487.726562 197.003906 489.128906 C 197.363281 490.527344 197.6875 491.9375 197.976562 493.351562 C 198.265625 494.765625 198.515625 496.1875 198.734375 497.617188 C 198.949219 499.042969 199.132812 500.476562 199.277344 501.914062 C 199.421875 503.347656 199.53125 504.789062 199.601562 506.230469 C 199.675781 507.671875 199.710938 509.113281 199.710938 510.558594 Z M 199.710938 510.558594 " fill-opacity="1" fill-rule="nonzero"/><path fill="#ffffff" d="M 185.589844 510.195312 C 185.589844 511.40625 185.558594 512.617188 185.496094 513.828125 C 185.4375 515.035156 185.34375 516.246094 185.222656 517.449219 C 185.101562 518.65625 184.949219 519.859375 184.765625 521.058594 C 184.585938 522.253906 184.375 523.449219 184.132812 524.636719 C 183.890625 525.824219 183.617188 527.007812 183.316406 528.183594 C 183.015625 529.359375 182.683594 530.527344 182.324219 531.6875 C 181.960938 532.84375 181.574219 533.996094 181.15625 535.136719 C 180.738281 536.277344 180.292969 537.40625 179.816406 538.527344 C 179.339844 539.644531 178.839844 540.753906 178.308594 541.847656 C 177.777344 542.945312 177.21875 544.027344 176.632812 545.09375 C 176.050781 546.164062 175.4375 547.21875 174.800781 548.257812 C 174.164062 549.296875 173.5 550.320312 172.808594 551.328125 C 172.121094 552.335938 171.40625 553.324219 170.664062 554.296875 C 169.925781 555.269531 169.164062 556.226562 168.375 557.164062 C 167.589844 558.097656 166.777344 559.015625 165.945312 559.914062 C 165.113281 560.8125 164.257812 561.6875 163.378906 562.546875 C 162.5 563.402344 161.601562 564.238281 160.683594 565.050781 C 159.765625 565.867188 158.824219 566.65625 157.867188 567.425781 C 156.90625 568.195312 155.929688 568.9375 154.929688 569.660156 C 153.933594 570.382812 152.921875 571.082031 151.886719 571.753906 C 150.855469 572.425781 149.808594 573.074219 148.742188 573.699219 C 147.679688 574.320312 146.601562 574.917969 145.507812 575.488281 C 144.410156 576.058594 143.304688 576.605469 142.179688 577.121094 C 141.058594 577.640625 139.925781 578.132812 138.777344 578.59375 C 137.632812 579.058594 136.476562 579.496094 135.304688 579.902344 C 134.136719 580.3125 132.960938 580.691406 131.773438 581.042969 C 130.585938 581.394531 129.390625 581.71875 128.1875 582.011719 C 126.980469 582.308594 125.773438 582.570312 124.554688 582.808594 C 123.335938 583.042969 122.113281 583.25 120.886719 583.429688 C 119.660156 583.609375 118.429688 583.753906 117.195312 583.875 C 115.957031 583.992188 114.722656 584.082031 113.480469 584.140625 C 112.242188 584.203125 111.003906 584.230469 109.761719 584.230469 C 108.519531 584.230469 107.28125 584.203125 106.039062 584.140625 C 104.800781 584.082031 103.5625 583.992188 102.328125 583.875 C 101.09375 583.753906 99.863281 583.609375 98.636719 583.429688 C 97.40625 583.25 96.183594 583.042969 94.96875 582.808594 C 93.75 582.570312 92.539062 582.308594 91.335938 582.011719 C 90.132812 581.71875 88.9375 581.394531 87.75 581.042969 C 86.5625 580.691406 85.382812 580.3125 84.214844 579.902344 C 83.046875 579.496094 81.890625 579.058594 80.742188 578.59375 C 79.597656 578.132812 78.464844 577.640625 77.339844 577.121094 C 76.21875 576.605469 75.113281 576.058594 74.015625 575.488281 C 72.921875 574.917969 71.84375 574.320312 70.777344 573.699219 C 69.714844 573.074219 68.667969 572.425781 67.632812 571.753906 C 66.601562 571.082031 65.589844 570.382812 64.589844 569.660156 C 63.59375 568.9375 62.617188 568.195312 61.65625 567.425781 C 60.699219 566.65625 59.757812 565.867188 58.839844 565.050781 C 57.917969 564.238281 57.019531 563.402344 56.144531 562.546875 C 55.265625 561.6875 54.410156 560.8125 53.578125 559.914062 C 52.742188 559.015625 51.933594 558.097656 51.148438 557.164062 C 50.359375 556.226562 49.597656 555.269531 48.855469 554.296875 C 48.117188 553.324219 47.402344 552.335938 46.714844 551.328125 C 46.023438 550.320312 45.359375 549.296875 44.722656 548.257812 C 44.085938 547.21875 43.472656 546.164062 42.886719 545.09375 C 42.304688 544.027344 41.746094 542.945312 41.214844 541.847656 C 40.683594 540.753906 40.179688 539.644531 39.707031 538.527344 C 39.230469 537.40625 38.785156 536.277344 38.367188 535.136719 C 37.949219 533.996094 37.558594 532.84375 37.199219 531.6875 C 36.839844 530.527344 36.507812 529.359375 36.207031 528.183594 C 35.90625 527.007812 35.632812 525.824219 35.390625 524.636719 C 35.148438 523.449219 34.9375 522.253906 34.753906 521.058594 C 34.574219 519.859375 34.421875 518.65625 34.300781 517.449219 C 34.179688 516.246094 34.085938 515.035156 34.027344 513.828125 C 33.964844 512.617188 33.933594 511.40625 33.933594 510.195312 C 33.933594 508.980469 33.964844 507.769531 34.027344 506.5625 C 34.085938 505.351562 34.179688 504.144531 34.300781 502.9375 C 34.421875 501.730469 34.574219 500.527344 34.753906 499.332031 C 34.9375 498.132812 35.148438 496.9375 35.390625 495.75 C 35.632812 494.5625 35.90625 493.378906 36.207031 492.203125 C 36.507812 491.027344 36.839844 489.859375 37.199219 488.703125 C 37.558594 487.542969 37.949219 486.390625 38.367188 485.25 C 38.785156 484.109375 39.230469 482.980469 39.707031 481.859375 C 40.179688 480.742188 40.683594 479.632812 41.214844 478.539062 C 41.746094 477.441406 42.304688 476.359375 42.886719 475.292969 C 43.472656 474.222656 44.085938 473.171875 44.722656 472.128906 C 45.359375 471.089844 46.023438 470.066406 46.714844 469.0625 C 47.402344 468.054688 48.117188 467.0625 48.855469 466.089844 C 49.597656 465.117188 50.359375 464.160156 51.148438 463.226562 C 51.933594 462.289062 52.742188 461.371094 53.578125 460.472656 C 54.410156 459.574219 55.265625 458.699219 56.144531 457.839844 C 57.019531 456.984375 57.917969 456.148438 58.839844 455.335938 C 59.757812 454.523438 60.699219 453.730469 61.65625 452.960938 C 62.617188 452.191406 63.59375 451.449219 64.589844 450.726562 C 65.589844 450.003906 66.601562 449.308594 67.632812 448.632812 C 68.667969 447.960938 69.714844 447.3125 70.777344 446.691406 C 71.84375 446.066406 72.921875 445.46875 74.015625 444.898438 C 75.113281 444.328125 76.21875 443.78125 77.339844 443.265625 C 78.464844 442.746094 79.597656 442.253906 80.742188 441.792969 C 81.890625 441.328125 83.046875 440.890625 84.214844 440.484375 C 85.382812 440.074219 86.5625 439.695312 87.75 439.34375 C 88.9375 438.992188 90.132812 438.667969 91.335938 438.375 C 92.539062 438.082031 93.75 437.816406 94.96875 437.578125 C 96.183594 437.34375 97.40625 437.136719 98.636719 436.957031 C 99.863281 436.78125 101.09375 436.632812 102.328125 436.511719 C 103.5625 436.394531 104.800781 436.304688 106.039062 436.246094 C 107.28125 436.1875 108.519531 436.15625 109.761719 436.15625 C 111.003906 436.15625 112.242188 436.1875 113.480469 436.246094 C 114.722656 436.304688 115.957031 436.394531 117.195312 436.511719 C 118.429688 436.632812 119.660156 436.78125 120.886719 436.957031 C 122.113281 437.136719 123.335938 437.34375 124.554688 437.578125 C 125.773438 437.816406 126.980469 438.082031 128.1875 438.375 C 129.390625 438.667969 130.585938 438.992188 131.773438 439.34375 C 132.960938 439.695312 134.136719 440.074219 135.304688 440.484375 C 136.476562 440.890625 137.632812 441.328125 138.777344 441.792969 C 139.925781 442.253906 141.058594 442.746094 142.179688 443.265625 C 143.304688 443.78125 144.410156 444.328125 145.507812 444.898438 C 146.601562 445.46875 147.679688 446.066406 148.742188 446.691406 C 149.808594 447.3125 150.855469 447.960938 151.886719 448.632812 C 152.921875 449.308594 153.933594 450.003906 154.929688 450.726562 C 155.929688 451.449219 156.90625 452.191406 157.867188 452.960938 C 158.824219 453.730469 159.765625 454.523438 160.683594 455.335938 C 161.601562 456.148438 162.5 456.984375 163.378906 457.839844 C 164.257812 458.699219 165.113281 459.574219 165.945312 460.472656 C 166.777344 461.371094 167.589844 462.289062 168.375 463.226562 C 169.164062 464.160156 169.925781 465.117188 170.664062 466.089844 C 171.40625 467.0625 172.121094 468.054688 172.808594 469.0625 C 173.5 470.066406 174.164062 471.089844 174.800781 472.128906 C 175.4375 473.171875 176.050781 474.222656 176.632812 475.292969 C 177.21875 476.359375 177.777344 477.441406 178.308594 478.539062 C 178.839844 479.632812 179.339844 480.742188 179.816406 481.859375 C 180.292969 482.980469 180.738281 484.109375 181.15625 485.25 C 181.574219 486.390625 181.960938 487.542969 182.324219 488.703125 C 182.683594 489.859375 183.015625 491.027344 183.316406 492.203125 C 183.617188 493.378906 183.890625 494.5625 184.132812 495.75 C 184.375 496.9375 184.585938 498.132812 184.765625 499.332031 C 184.949219 500.527344 185.101562 501.730469 185.222656 502.9375 C 185.34375 504.144531 185.4375 505.351562 185.496094 506.5625 C 185.558594 507.769531 185.589844 508.980469 185.589844 510.195312 Z M 185.589844 510.195312 " fill-opacity="1" fill-rule="nonzero"/><g clip-path="url(#37c61aa4ea)"><path fill="#ffddd2" d="M 95.042969 655.609375 L 725.78125 655.609375 C 726.855469 655.609375 727.929688 655.632812 729.003906 655.6875 C 730.078125 655.738281 731.148438 655.820312 732.21875 655.925781 C 733.289062 656.03125 734.355469 656.160156 735.417969 656.320312 C 736.480469 656.476562 737.539062 656.660156 738.59375 656.871094 C 739.644531 657.078125 740.695312 657.316406 741.738281 657.578125 C 742.78125 657.835938 743.816406 658.125 744.84375 658.4375 C 745.871094 658.75 746.890625 659.085938 747.902344 659.449219 C 748.914062 659.808594 749.917969 660.195312 750.910156 660.609375 C 751.902344 661.019531 752.886719 661.457031 753.859375 661.914062 C 754.828125 662.375 755.789062 662.859375 756.738281 663.363281 C 757.683594 663.871094 758.617188 664.402344 759.539062 664.953125 C 760.460938 665.507812 761.371094 666.082031 762.265625 666.679688 C 763.15625 667.277344 764.035156 667.894531 764.898438 668.535156 C 765.761719 669.175781 766.609375 669.835938 767.441406 670.519531 C 768.269531 671.199219 769.085938 671.902344 769.878906 672.625 C 770.675781 673.347656 771.453125 674.089844 772.214844 674.847656 C 772.976562 675.609375 773.714844 676.386719 774.4375 677.183594 C 775.160156 677.980469 775.859375 678.792969 776.542969 679.625 C 777.222656 680.457031 777.886719 681.304688 778.527344 682.167969 C 779.164062 683.03125 779.785156 683.910156 780.382812 684.804688 C 780.976562 685.695312 781.554688 686.605469 782.105469 687.527344 C 782.660156 688.449219 783.1875 689.382812 783.695312 690.332031 C 784.199219 691.28125 784.683594 692.242188 785.144531 693.210938 C 785.601562 694.183594 786.039062 695.167969 786.449219 696.160156 C 786.859375 697.152344 787.246094 698.15625 787.609375 699.167969 C 787.972656 700.179688 788.308594 701.203125 788.621094 702.230469 C 788.933594 703.257812 789.21875 704.292969 789.480469 705.335938 C 789.742188 706.378906 789.976562 707.429688 790.1875 708.484375 C 790.394531 709.539062 790.578125 710.597656 790.738281 711.660156 C 790.894531 712.722656 791.027344 713.789062 791.132812 714.859375 C 791.238281 715.929688 791.316406 717.003906 791.371094 718.078125 C 791.421875 719.148438 791.449219 720.222656 791.449219 721.300781 C 791.449219 722.375 791.421875 723.449219 791.371094 724.523438 C 791.316406 725.597656 791.238281 726.667969 791.132812 727.738281 C 791.027344 728.808594 790.894531 729.875 790.738281 730.9375 C 790.578125 732 790.394531 733.0625 790.1875 734.117188 C 789.976562 735.167969 789.742188 736.21875 789.480469 737.261719 C 789.21875 738.304688 788.933594 739.339844 788.621094 740.367188 C 788.308594 741.398438 787.972656 742.417969 787.609375 743.429688 C 787.246094 744.441406 786.859375 745.445312 786.449219 746.4375 C 786.039062 747.433594 785.601562 748.414062 785.144531 749.386719 C 784.683594 750.359375 784.199219 751.316406 783.695312 752.265625 C 783.1875 753.214844 782.660156 754.148438 782.105469 755.070312 C 781.554688 755.992188 780.980469 756.902344 780.382812 757.796875 C 779.785156 758.691406 779.164062 759.570312 778.527344 760.433594 C 777.886719 761.296875 777.222656 762.144531 776.542969 762.972656 C 775.859375 763.804688 775.160156 764.617188 774.4375 765.414062 C 773.714844 766.210938 772.976562 766.992188 772.214844 767.75 C 771.453125 768.511719 770.675781 769.25 769.878906 769.972656 C 769.085938 770.695312 768.269531 771.398438 767.441406 772.078125 C 766.609375 772.761719 765.761719 773.421875 764.898438 774.0625 C 764.035156 774.703125 763.15625 775.324219 762.265625 775.921875 C 761.371094 776.515625 760.460938 777.09375 759.539062 777.644531 C 758.621094 778.199219 757.683594 778.726562 756.738281 779.234375 C 755.789062 779.742188 754.828125 780.222656 753.859375 780.683594 C 752.886719 781.144531 751.902344 781.578125 750.910156 781.992188 C 749.917969 782.402344 748.914062 782.789062 747.902344 783.152344 C 746.890625 783.511719 745.871094 783.851562 744.84375 784.164062 C 743.816406 784.476562 742.78125 784.761719 741.738281 785.023438 C 740.695312 785.285156 739.644531 785.519531 738.59375 785.730469 C 737.539062 785.9375 736.480469 786.121094 735.417969 786.28125 C 734.355469 786.4375 733.289062 786.570312 732.21875 786.675781 C 731.148438 786.78125 730.078125 786.859375 729.003906 786.910156 C 727.929688 786.964844 726.855469 786.992188 725.78125 786.992188 L 95.042969 786.992188 Z M 95.042969 655.609375 " fill-opacity="1" fill-rule="nonzero"/></g><path fill="#efc6bb" d="M 199.710938 721.671875 C 199.710938 723.117188 199.675781 724.558594 199.601562 726 C 199.53125 727.441406 199.421875 728.878906 199.277344 730.316406 C 199.132812 731.753906 198.949219 733.183594 198.734375 734.613281 C 198.515625 736.039062 198.265625 737.460938 197.976562 738.878906 C 197.6875 740.292969 197.363281 741.699219 197.003906 743.101562 C 196.644531 744.5 196.25 745.890625 195.820312 747.273438 C 195.390625 748.652344 194.929688 750.023438 194.429688 751.382812 C 193.933594 752.742188 193.402344 754.089844 192.835938 755.421875 C 192.269531 756.753906 191.671875 758.074219 191.039062 759.378906 C 190.40625 760.683594 189.742188 761.972656 189.046875 763.246094 C 188.347656 764.519531 187.621094 765.773438 186.859375 767.011719 C 186.101562 768.25 185.308594 769.46875 184.488281 770.667969 C 183.667969 771.867188 182.816406 773.046875 181.9375 774.207031 C 181.054688 775.367188 180.148438 776.503906 179.207031 777.621094 C 178.269531 778.734375 177.304688 779.828125 176.3125 780.898438 C 175.320312 781.96875 174.300781 783.011719 173.257812 784.03125 C 172.210938 785.054688 171.140625 786.046875 170.046875 787.019531 C 168.949219 787.988281 167.832031 788.929688 166.6875 789.84375 C 165.546875 790.761719 164.382812 791.648438 163.195312 792.507812 C 162.007812 793.367188 160.796875 794.199219 159.570312 795 C 158.339844 795.800781 157.089844 796.574219 155.824219 797.316406 C 154.554688 798.058594 153.269531 798.769531 151.964844 799.449219 C 150.664062 800.128906 149.34375 800.78125 148.007812 801.398438 C 146.671875 802.015625 145.320312 802.597656 143.953125 803.152344 C 142.589844 803.703125 141.210938 804.222656 139.816406 804.707031 C 138.425781 805.195312 137.023438 805.648438 135.609375 806.066406 C 134.195312 806.484375 132.769531 806.871094 131.335938 807.222656 C 129.902344 807.570312 128.460938 807.886719 127.011719 808.167969 C 125.558594 808.449219 124.105469 808.699219 122.640625 808.910156 C 121.179688 809.121094 119.714844 809.296875 118.242188 809.4375 C 116.769531 809.582031 115.296875 809.6875 113.820312 809.757812 C 112.34375 809.828125 110.867188 809.863281 109.390625 809.863281 C 107.910156 809.863281 106.433594 809.828125 104.957031 809.757812 C 103.480469 809.6875 102.007812 809.582031 100.535156 809.441406 C 99.066406 809.296875 97.597656 809.121094 96.136719 808.910156 C 94.675781 808.699219 93.21875 808.449219 91.769531 808.167969 C 90.320312 807.886719 88.875 807.570312 87.441406 807.222656 C 86.007812 806.871094 84.585938 806.484375 83.171875 806.066406 C 81.753906 805.648438 80.351562 805.195312 78.960938 804.707031 C 77.570312 804.222656 76.191406 803.703125 74.824219 803.152344 C 73.457031 802.597656 72.109375 802.015625 70.773438 801.398438 C 69.433594 800.78125 68.117188 800.128906 66.8125 799.449219 C 65.507812 798.769531 64.222656 798.058594 62.953125 797.316406 C 61.6875 796.574219 60.4375 795.800781 59.207031 795 C 57.980469 794.199219 56.773438 793.367188 55.585938 792.507812 C 54.398438 791.648438 53.230469 790.761719 52.089844 789.84375 C 50.945312 788.929688 49.828125 787.988281 48.734375 787.019531 C 47.636719 786.046875 46.566406 785.054688 45.523438 784.03125 C 44.476562 783.011719 43.457031 781.96875 42.464844 780.898438 C 41.472656 779.828125 40.507812 778.734375 39.570312 777.621094 C 38.632812 776.503906 37.722656 775.367188 36.84375 774.207031 C 35.960938 773.046875 35.109375 771.867188 34.289062 770.667969 C 33.46875 769.46875 32.675781 768.25 31.917969 767.011719 C 31.15625 765.773438 30.429688 764.519531 29.730469 763.246094 C 29.035156 761.972656 28.371094 760.683594 27.738281 759.378906 C 27.105469 758.074219 26.507812 756.753906 25.941406 755.421875 C 25.375 754.089844 24.84375 752.742188 24.347656 751.382812 C 23.847656 750.023438 23.386719 748.652344 22.957031 747.273438 C 22.527344 745.890625 22.132812 744.5 21.773438 743.101562 C 21.414062 741.699219 21.089844 740.292969 20.800781 738.878906 C 20.515625 737.460938 20.261719 736.039062 20.042969 734.613281 C 19.828125 733.183594 19.648438 731.753906 19.503906 730.316406 C 19.355469 728.878906 19.25 727.441406 19.175781 726 C 19.101562 724.558594 19.066406 723.117188 19.066406 721.671875 C 19.066406 720.230469 19.101562 718.785156 19.175781 717.34375 C 19.25 715.902344 19.355469 714.464844 19.503906 713.027344 C 19.648438 711.589844 19.828125 710.160156 20.042969 708.730469 C 20.261719 707.304688 20.515625 705.882812 20.800781 704.464844 C 21.089844 703.050781 21.414062 701.644531 21.773438 700.242188 C 22.132812 698.84375 22.527344 697.453125 22.957031 696.070312 C 23.386719 694.691406 23.847656 693.320312 24.347656 691.960938 C 24.84375 690.601562 25.375 689.253906 25.941406 687.921875 C 26.507812 686.589844 27.105469 685.269531 27.738281 683.964844 C 28.371094 682.660156 29.035156 681.371094 29.730469 680.097656 C 30.429688 678.824219 31.15625 677.570312 31.917969 676.332031 C 32.675781 675.09375 33.46875 673.875 34.289062 672.675781 C 35.109375 671.476562 35.960938 670.296875 36.84375 669.136719 C 37.722656 667.976562 38.632812 666.839844 39.570312 665.722656 C 40.507812 664.609375 41.472656 663.515625 42.464844 662.445312 C 43.457031 661.375 44.476562 660.332031 45.523438 659.3125 C 46.566406 658.289062 47.636719 657.296875 48.734375 656.324219 C 49.828125 655.355469 50.945312 654.414062 52.089844 653.5 C 53.230469 652.582031 54.398438 651.695312 55.585938 650.835938 C 56.773438 649.976562 57.980469 649.144531 59.207031 648.34375 C 60.4375 647.542969 61.6875 646.769531 62.953125 646.027344 C 64.222656 645.285156 65.507812 644.574219 66.8125 643.894531 C 68.117188 643.214844 69.433594 642.5625 70.773438 641.949219 C 72.109375 641.332031 73.457031 640.746094 74.824219 640.191406 C 76.191406 639.640625 77.570312 639.121094 78.960938 638.636719 C 80.351562 638.148438 81.753906 637.695312 83.171875 637.277344 C 84.585938 636.859375 86.007812 636.472656 87.441406 636.121094 C 88.875 635.773438 90.320312 635.457031 91.769531 635.175781 C 93.21875 634.894531 94.675781 634.644531 96.136719 634.433594 C 97.597656 634.222656 99.066406 634.046875 100.535156 633.90625 C 102.007812 633.761719 103.480469 633.65625 104.957031 633.585938 C 106.433594 633.515625 107.910156 633.480469 109.390625 633.480469 C 110.867188 633.480469 112.34375 633.515625 113.820312 633.585938 C 115.296875 633.65625 116.769531 633.761719 118.242188 633.90625 C 119.714844 634.046875 121.179688 634.222656 122.640625 634.433594 C 124.105469 634.644531 125.558594 634.894531 127.011719 635.175781 C 128.460938 635.457031 129.902344 635.773438 131.335938 636.121094 C 132.769531 636.472656 134.195312 636.859375 135.609375 637.277344 C 137.023438 637.695312 138.425781 638.148438 139.816406 638.636719 C 141.210938 639.121094 142.589844 639.640625 143.953125 640.191406 C 145.320312 640.746094 146.671875 641.332031 148.007812 641.949219 C 149.34375 642.5625 150.664062 643.214844 151.964844 643.894531 C 153.269531 644.574219 154.554688 645.285156 155.824219 646.027344 C 157.089844 646.769531 158.339844 647.539062 159.570312 648.34375 C 160.796875 649.144531 162.007812 649.976562 163.195312 650.835938 C 164.382812 651.695312 165.546875 652.582031 166.6875 653.5 C 167.832031 654.414062 168.949219 655.355469 170.046875 656.324219 C 171.140625 657.296875 172.210938 658.289062 173.257812 659.3125 C 174.300781 660.332031 175.320312 661.375 176.3125 662.445312 C 177.304688 663.515625 178.269531 664.609375 179.207031 665.722656 C 180.148438 666.839844 181.054688 667.976562 181.9375 669.136719 C 182.816406 670.296875 183.667969 671.476562 184.488281 672.675781 C 185.308594 673.875 186.101562 675.09375 186.859375 676.332031 C 187.621094 677.570312 188.347656 678.824219 189.046875 680.097656 C 189.742188 681.371094 190.40625 682.660156 191.039062 683.964844 C 191.671875 685.269531 192.269531 686.589844 192.835938 687.921875 C 193.402344 689.253906 193.933594 690.601562 194.429688 691.960938 C 194.929688 693.320312 195.390625 694.691406 195.820312 696.070312 C 196.25 697.453125 196.644531 698.84375 197.003906 700.242188 C 197.363281 701.644531 197.6875 703.050781 197.976562 704.464844 C 198.265625 705.882812 198.515625 707.304688 198.734375 708.730469 C 198.949219 710.160156 199.132812 711.589844 199.277344 713.027344 C 199.421875 714.464844 199.53125 715.902344 199.601562 717.34375 C 199.675781 718.785156 199.710938 720.230469 199.710938 721.671875 Z M 199.710938 721.671875 " fill-opacity="1" fill-rule="nonzero"/><path fill="#ffffff" d="M 185.589844 721.308594 C 185.589844 722.519531 185.558594 723.730469 185.496094 724.941406 C 185.4375 726.152344 185.34375 727.359375 185.222656 728.566406 C 185.101562 729.769531 184.949219 730.972656 184.765625 732.171875 C 184.585938 733.371094 184.375 734.5625 184.132812 735.753906 C 183.890625 736.941406 183.617188 738.121094 183.316406 739.296875 C 183.015625 740.472656 182.683594 741.640625 182.324219 742.800781 C 181.960938 743.960938 181.574219 745.109375 181.15625 746.25 C 180.738281 747.390625 180.292969 748.523438 179.816406 749.640625 C 179.339844 750.761719 178.839844 751.867188 178.308594 752.964844 C 177.777344 754.058594 177.21875 755.140625 176.632812 756.210938 C 176.050781 757.277344 175.4375 758.332031 174.800781 759.371094 C 174.164062 760.410156 173.5 761.433594 172.808594 762.441406 C 172.121094 763.449219 171.40625 764.4375 170.664062 765.414062 C 169.925781 766.386719 169.164062 767.339844 168.375 768.277344 C 167.589844 769.214844 166.777344 770.132812 165.945312 771.027344 C 165.113281 771.925781 164.257812 772.804688 163.378906 773.660156 C 162.5 774.515625 161.601562 775.351562 160.683594 776.167969 C 159.765625 776.980469 158.824219 777.769531 157.867188 778.539062 C 156.90625 779.308594 155.929688 780.054688 154.929688 780.777344 C 153.933594 781.496094 152.921875 782.195312 151.886719 782.867188 C 150.855469 783.542969 149.808594 784.1875 148.742188 784.8125 C 147.679688 785.433594 146.601562 786.03125 145.507812 786.601562 C 144.410156 787.175781 143.304688 787.71875 142.179688 788.238281 C 141.058594 788.753906 139.925781 789.246094 138.777344 789.710938 C 137.632812 790.171875 136.476562 790.609375 135.304688 791.019531 C 134.136719 791.425781 132.960938 791.804688 131.773438 792.15625 C 130.585938 792.507812 129.390625 792.832031 128.1875 793.125 C 126.980469 793.421875 125.773438 793.6875 124.554688 793.921875 C 123.335938 794.160156 122.113281 794.367188 120.886719 794.542969 C 119.660156 794.722656 118.429688 794.871094 117.195312 794.988281 C 115.957031 795.109375 114.722656 795.195312 113.480469 795.257812 C 112.242188 795.316406 111.003906 795.34375 109.761719 795.347656 C 108.519531 795.34375 107.28125 795.316406 106.039062 795.257812 C 104.800781 795.195312 103.5625 795.109375 102.328125 794.988281 C 101.09375 794.871094 99.863281 794.722656 98.636719 794.542969 C 97.40625 794.367188 96.183594 794.160156 94.96875 793.921875 C 93.75 793.6875 92.539062 793.421875 91.335938 793.125 C 90.132812 792.832031 88.9375 792.507812 87.75 792.15625 C 86.5625 791.804688 85.382812 791.425781 84.214844 791.019531 C 83.046875 790.609375 81.890625 790.171875 80.742188 789.710938 C 79.597656 789.246094 78.464844 788.753906 77.339844 788.238281 C 76.21875 787.71875 75.113281 787.175781 74.015625 786.601562 C 72.921875 786.03125 71.84375 785.433594 70.777344 784.8125 C 69.714844 784.1875 68.667969 783.542969 67.632812 782.867188 C 66.601562 782.195312 65.589844 781.496094 64.589844 780.777344 C 63.59375 780.054688 62.617188 779.308594 61.65625 778.539062 C 60.699219 777.769531 59.757812 776.980469 58.839844 776.167969 C 57.917969 775.351562 57.019531 774.515625 56.144531 773.660156 C 55.265625 772.804688 54.410156 771.925781 53.578125 771.027344 C 52.742188 770.132812 51.933594 769.214844 51.148438 768.277344 C 50.359375 767.339844 49.597656 766.386719 48.855469 765.414062 C 48.117188 764.4375 47.402344 763.449219 46.714844 762.441406 C 46.023438 761.433594 45.359375 760.410156 44.722656 759.371094 C 44.085938 758.332031 43.472656 757.277344 42.886719 756.210938 C 42.304688 755.140625 41.746094 754.058594 41.214844 752.964844 C 40.683594 751.867188 40.179688 750.761719 39.707031 749.640625 C 39.230469 748.523438 38.785156 747.390625 38.367188 746.25 C 37.949219 745.109375 37.558594 743.960938 37.199219 742.800781 C 36.839844 741.640625 36.507812 740.472656 36.207031 739.296875 C 35.90625 738.121094 35.632812 736.941406 35.390625 735.753906 C 35.148438 734.5625 34.9375 733.371094 34.753906 732.171875 C 34.574219 730.972656 34.421875 729.769531 34.300781 728.566406 C 34.179688 727.359375 34.085938 726.152344 34.027344 724.941406 C 33.964844 723.730469 33.933594 722.519531 33.933594 721.308594 C 33.933594 720.097656 33.964844 718.886719 34.027344 717.675781 C 34.085938 716.464844 34.179688 715.257812 34.300781 714.050781 C 34.421875 712.84375 34.574219 711.644531 34.753906 710.445312 C 34.9375 709.246094 35.148438 708.054688 35.390625 706.863281 C 35.632812 705.675781 35.90625 704.492188 36.207031 703.320312 C 36.507812 702.144531 36.839844 700.976562 37.199219 699.816406 C 37.558594 698.65625 37.949219 697.507812 38.367188 696.367188 C 38.785156 695.226562 39.230469 694.09375 39.707031 692.976562 C 40.179688 691.855469 40.683594 690.75 41.214844 689.652344 C 41.746094 688.558594 42.304688 687.476562 42.886719 686.40625 C 43.472656 685.339844 44.085938 684.285156 44.722656 683.246094 C 45.359375 682.207031 46.023438 681.183594 46.714844 680.175781 C 47.402344 679.167969 48.117188 678.175781 48.855469 677.203125 C 49.597656 676.230469 50.359375 675.277344 51.148438 674.339844 C 51.933594 673.402344 52.742188 672.484375 53.578125 671.585938 C 54.410156 670.691406 55.265625 669.8125 56.144531 668.957031 C 57.019531 668.097656 57.917969 667.265625 58.839844 666.449219 C 59.757812 665.636719 60.699219 664.84375 61.65625 664.078125 C 62.617188 663.308594 63.59375 662.5625 64.589844 661.839844 C 65.589844 661.117188 66.601562 660.421875 67.632812 659.75 C 68.667969 659.074219 69.714844 658.425781 70.777344 657.804688 C 71.84375 657.179688 72.921875 656.585938 74.015625 656.011719 C 75.113281 655.441406 76.21875 654.898438 77.339844 654.378906 C 78.464844 653.859375 79.597656 653.371094 80.742188 652.90625 C 81.890625 652.441406 83.046875 652.007812 84.214844 651.597656 C 85.382812 651.191406 86.5625 650.8125 87.75 650.460938 C 88.9375 650.105469 90.132812 649.785156 91.335938 649.488281 C 92.539062 649.195312 93.75 648.929688 94.96875 648.695312 C 96.183594 648.457031 97.40625 648.25 98.636719 648.074219 C 99.863281 647.894531 101.09375 647.746094 102.328125 647.628906 C 103.5625 647.507812 104.800781 647.417969 106.039062 647.359375 C 107.28125 647.300781 108.519531 647.269531 109.761719 647.269531 C 111.003906 647.269531 112.242188 647.300781 113.480469 647.359375 C 114.722656 647.417969 115.957031 647.507812 117.195312 647.628906 C 118.429688 647.746094 119.660156 647.894531 120.886719 648.074219 C 122.113281 648.25 123.335938 648.457031 124.554688 648.695312 C 125.773438 648.929688 126.980469 649.195312 128.1875 649.488281 C 129.390625 649.785156 130.585938 650.105469 131.773438 650.460938 C 132.960938 650.8125 134.136719 651.191406 135.304688 651.597656 C 136.476562 652.007812 137.632812 652.441406 138.777344 652.90625 C 139.925781 653.371094 141.058594 653.859375 142.179688 654.378906 C 143.304688 654.898438 144.410156 655.441406 145.507812 656.011719 C 146.601562 656.585938 147.679688 657.179688 148.742188 657.804688 C 149.808594 658.425781 150.855469 659.074219 151.886719 659.75 C 152.921875 660.421875 153.933594 661.117188 154.929688 661.839844 C 155.929688 662.5625 156.90625 663.308594 157.867188 664.078125 C 158.824219 664.84375 159.765625 665.636719 160.683594 666.449219 C 161.601562 667.265625 162.5 668.097656 163.378906 668.957031 C 164.257812 669.8125 165.113281 670.691406 165.945312 671.585938 C 166.777344 672.484375 167.589844 673.402344 168.375 674.339844 C 169.164062 675.277344 169.925781 676.230469 170.664062 677.203125 C 171.40625 678.175781 172.121094 679.167969 172.808594 680.175781 C 173.5 681.183594 174.164062 682.207031 174.800781 683.246094 C 175.4375 684.285156 176.050781 685.339844 176.632812 686.40625 C 177.21875 687.476562 177.777344 688.558594 178.308594 689.652344 C 178.839844 690.75 179.339844 691.855469 179.816406 692.976562 C 180.292969 694.09375 180.738281 695.226562 181.15625 696.367188 C 181.574219 697.507812 181.960938 698.65625 182.324219 699.816406 C 182.683594 700.976562 183.015625 702.144531 183.316406 703.320312 C 183.617188 704.492188 183.890625 705.675781 184.132812 706.863281 C 184.375 708.050781 184.585938 709.246094 184.765625 710.445312 C 184.949219 711.644531 185.101562 712.84375 185.222656 714.050781 C 185.34375 715.257812 185.4375 716.464844 185.496094 717.675781 C 185.558594 718.886719 185.589844 720.097656 185.589844 721.308594 Z M 185.589844 721.308594 " fill-opacity="1" fill-rule="nonzero"/></svg>