<svg xmlns="http://www.w3.org/2000/svg" xmlns:xlink="http://www.w3.org/1999/xlink" width="600" zoomAndPan="magnify" viewBox="0 0 450 74.999997" height="100" preserveAspectRatio="xMidYMid meet" version="1.0"><defs><g/></defs><g fill="#000000" fill-opacity="1"><g transform="translate(0.0263761, 57.620459)"><g><path d="M 23.847656 -6.550781 C 23.847656 -3.699219 22.148438 -2.898438 19.5 -2.898438 C 16.097656 -2.898438 14.347656 -4.097656 14.347656 -5.949219 C 14.347656 -7.648438 16.25 -9 19.746094 -9 C 21.148438 -9 22.496094 -8.847656 23.796875 -8.648438 C 23.847656 -7.800781 23.847656 -7.097656 23.847656 -6.550781 Z M 43.644531 -5.300781 C 40.796875 -7.699219 36.046875 -11 29.796875 -12.796875 C 29.648438 -14.699219 29.546875 -16.699219 29.445312 -18.546875 C 34.246094 -18.699219 38.097656 -19.046875 42.546875 -19.546875 L 42.546875 -25.398438 C 38.496094 -24.898438 34.347656 -24.449219 29.347656 -24.246094 L 29.398438 -29.398438 C 34.148438 -29.648438 38.144531 -30.046875 41.394531 -30.347656 L 41.246094 -36.046875 C 36.945312 -35.394531 33.296875 -34.996094 29.445312 -34.847656 L 29.496094 -36.796875 C 29.546875 -38.046875 29.695312 -39.296875 29.847656 -40.296875 L 23.097656 -40.296875 C 23.296875 -39.347656 23.347656 -37.796875 23.347656 -36.894531 L 23.347656 -34.648438 L 20.898438 -34.648438 C 17.847656 -34.648438 13.25 -34.996094 10.148438 -35.597656 L 10.199219 -29.945312 C 13.046875 -29.496094 17.796875 -29.195312 20.949219 -29.195312 L 23.296875 -29.195312 L 23.296875 -24.046875 L 20.949219 -24.046875 C 18.296875 -24.046875 11.847656 -24.398438 9 -24.949219 L 8.949219 -19.097656 C 12.25 -18.699219 17.949219 -18.449219 20.847656 -18.449219 L 23.398438 -18.449219 C 23.449219 -17 23.496094 -15.449219 23.597656 -13.949219 C 22.597656 -14.046875 21.597656 -14.097656 20.546875 -14.097656 C 12.898438 -14.097656 8.300781 -10.597656 8.300781 -5.597656 C 8.300781 -0.351562 12.5 2.648438 20.398438 2.648438 C 26.949219 2.648438 30.148438 -0.601562 30.148438 -4.847656 C 30.148438 -5.347656 30.148438 -5.949219 30.097656 -6.597656 C 34.046875 -4.800781 37.445312 -2.25 40.097656 0.25 Z M 43.644531 -5.300781 "/></g></g></g><g fill="#000000" fill-opacity="1"><g transform="translate(50.01864, 57.620459)"><g><path d="M 37.046875 -34.847656 C 35.796875 -33.796875 34.347656 -32.945312 32.496094 -31.847656 C 30.148438 -30.546875 25.847656 -28.347656 21.796875 -25.996094 C 19.796875 -29.796875 17.5 -34.546875 15.597656 -39.695312 L 9.347656 -37.144531 C 11.597656 -31.898438 14 -26.648438 16.296875 -22.398438 C 11.550781 -18.898438 8.097656 -14.847656 8.097656 -9.347656 C 8.097656 -0.851562 15.546875 1.898438 25.398438 1.898438 C 31.847656 1.898438 37.097656 1.398438 41.296875 0.699219 L 41.394531 -6.449219 C 36.996094 -5.449219 30.296875 -4.648438 25.199219 -4.648438 C 18.347656 -4.648438 14.898438 -6.550781 14.898438 -10.097656 C 14.898438 -13.546875 17.648438 -16.398438 21.796875 -19.097656 C 26.296875 -21.996094 32.496094 -24.898438 35.597656 -26.449219 C 37.394531 -27.347656 38.996094 -28.195312 40.496094 -29.097656 Z M 37.046875 -34.847656 "/></g></g></g><g fill="#000000" fill-opacity="1"><g transform="translate(100.010903, 57.620459)"><g><path d="M 12.097656 -7.148438 C 10.300781 -7.148438 9.300781 -8.699219 9.300781 -11.097656 C 9.300781 -14.148438 10.597656 -17.648438 12.898438 -20.398438 C 14.347656 -16.648438 15.949219 -13.296875 17.5 -10.898438 C 15.699219 -8.648438 13.847656 -7.148438 12.097656 -7.148438 Z M 25.648438 -26.996094 C 24.496094 -23.347656 22.996094 -19.546875 21.246094 -16.398438 C 20.097656 -18.347656 18.847656 -21.199219 17.75 -24.246094 C 20.046875 -25.648438 22.648438 -26.648438 25.648438 -26.996094 Z M 33.695312 -34.046875 C 33.996094 -35.296875 34.445312 -37.695312 34.847656 -39.046875 L 27.996094 -39.695312 C 28.046875 -38.546875 27.898438 -36.445312 27.648438 -34.996094 C 27.496094 -34.246094 27.347656 -33.445312 27.148438 -32.597656 C 23.347656 -32.445312 19.699219 -31.597656 15.949219 -29.648438 C 15.597656 -30.695312 15.296875 -31.746094 15.046875 -32.695312 C 14.648438 -34.148438 14.25 -35.796875 13.949219 -37.394531 L 7.449219 -35.394531 C 8.300781 -33.597656 8.898438 -32.046875 9.449219 -30.246094 C 9.847656 -28.898438 10.300781 -27.546875 10.75 -26.246094 C 6.300781 -22.296875 3.449219 -16.296875 3.449219 -10.597656 C 3.449219 -4.199219 7.25 -0.699219 11.347656 -0.699219 C 15 -0.699219 17.75 -2.398438 21.097656 -6 C 21.597656 -5.347656 22.199219 -4.699219 22.796875 -4.050781 L 27.746094 -8 C 26.847656 -8.898438 25.949219 -9.898438 25.046875 -10.949219 C 27.898438 -15.25 30.046875 -20.949219 31.746094 -26.699219 C 36.746094 -25.347656 39.746094 -21.296875 39.746094 -15.796875 C 39.746094 -9.597656 35.496094 -4.050781 24.597656 -3.101562 L 28.398438 2.601562 C 38.746094 1.050781 46.246094 -4.949219 46.246094 -15.449219 C 46.246094 -24.148438 40.996094 -30.398438 33.246094 -32.148438 Z M 33.695312 -34.046875 "/></g></g></g><g fill="#000000" fill-opacity="1"><g transform="translate(150.003167, 57.620459)"><g><path d="M 39.296875 -31.496094 C 38.046875 -31.296875 36.746094 -31.148438 35.496094 -31.148438 L 26.097656 -31.148438 C 26.199219 -32.597656 26.246094 -34.097656 26.296875 -35.644531 C 26.347656 -36.847656 26.449219 -38.945312 26.597656 -40.097656 L 19.25 -40.097656 C 19.449219 -38.894531 19.597656 -36.597656 19.597656 -35.496094 C 19.597656 -33.996094 19.546875 -32.546875 19.5 -31.148438 L 12.347656 -31.148438 C 10.449219 -31.148438 7.847656 -31.296875 5.75 -31.496094 L 5.75 -24.949219 C 7.898438 -25.148438 10.648438 -25.148438 12.347656 -25.148438 L 18.949219 -25.148438 C 17.847656 -17.546875 15.347656 -11.949219 10.699219 -7.347656 C 8.699219 -5.300781 6.25 -3.601562 4.148438 -2.449219 L 9.949219 2.25 C 18.898438 -4.097656 23.648438 -11.949219 25.496094 -25.148438 L 36.746094 -25.148438 C 36.746094 -19.746094 36.097656 -9.75 34.648438 -6.597656 C 34.097656 -5.398438 33.398438 -4.847656 31.796875 -4.847656 C 29.847656 -4.847656 27.246094 -5.097656 24.796875 -5.550781 L 25.546875 1.148438 C 27.996094 1.351562 30.996094 1.550781 33.847656 1.550781 C 37.296875 1.550781 39.195312 0.25 40.296875 -2.300781 C 42.445312 -7.398438 43.046875 -21.347656 43.246094 -26.746094 C 43.246094 -27.296875 43.445312 -28.546875 43.59375 -29.398438 Z M 39.296875 -31.496094 "/></g></g></g><g fill="#000000" fill-opacity="1"><g transform="translate(199.995431, 57.620459)"><g><path d="M 37.597656 -36.945312 C 36.597656 -36.597656 34.597656 -36.296875 32.398438 -36.296875 L 14.796875 -36.296875 C 13.296875 -36.296875 10.25 -36.445312 8.898438 -36.644531 L 8.898438 -29.546875 C 9.949219 -29.597656 12.699219 -29.898438 14.796875 -29.898438 L 31.746094 -29.898438 C 30.648438 -26.347656 27.597656 -21.398438 24.296875 -17.648438 C 19.597656 -12.398438 11.847656 -6.347656 3.800781 -3.300781 L 8.949219 2.101562 C 15.796875 -1.148438 22.449219 -6.347656 27.746094 -11.949219 C 32.445312 -7.398438 37.097656 -2.300781 40.347656 2.199219 L 46.046875 -2.75 C 43.09375 -6.347656 37.046875 -12.75 32.097656 -17.046875 C 35.445312 -21.546875 38.246094 -26.898438 39.945312 -30.796875 C 40.394531 -31.796875 41.296875 -33.347656 41.695312 -33.898438 Z M 37.597656 -36.945312 "/></g></g></g><g fill="#000000" fill-opacity="1"><g transform="translate(249.987706, 57.620459)"><g><path d="M 39.847656 -35.046875 C 38.746094 -34.695312 37.046875 -34.496094 35.496094 -34.496094 L 25.246094 -34.496094 L 25.296875 -34.546875 C 25.898438 -35.597656 27.199219 -37.894531 28.398438 -39.644531 L 21.148438 -41.894531 C 20.699219 -40.144531 19.648438 -37.847656 18.898438 -36.644531 C 16.398438 -32.296875 11.75 -25.449219 2.949219 -20.046875 L 8.347656 -15.898438 C 13.398438 -19.347656 18.046875 -24.148438 21.546875 -28.796875 L 35.894531 -28.796875 C 35.148438 -25.796875 33.148438 -21.699219 30.695312 -18.148438 C 27.347656 -20.148438 23.949219 -22.046875 21.296875 -23.398438 L 17.046875 -18.648438 C 19.597656 -17.199219 22.996094 -15.148438 26.398438 -12.949219 C 22.246094 -8.699219 16.597656 -4.449219 7.75 -1.75 L 13.546875 3.300781 C 21.648438 0.199219 27.546875 -4.300781 31.996094 -9.148438 C 33.847656 -7.847656 35.445312 -6.648438 36.644531 -5.597656 L 41.195312 -11.449219 C 39.945312 -12.347656 38.246094 -13.5 36.394531 -14.648438 C 39.695312 -19.449219 41.996094 -24.496094 43.296875 -28.347656 C 43.746094 -29.597656 44.394531 -30.945312 44.945312 -31.898438 Z M 39.847656 -35.046875 "/></g></g></g><g fill="#000000" fill-opacity="1"><g transform="translate(299.979981, 57.620459)"><g><path d="M 42.644531 -35.597656 C 41.597656 -35.246094 39.894531 -35.046875 37.996094 -35.046875 L 10.25 -35.046875 C 8.550781 -35.046875 5.800781 -35.296875 4.5 -35.496094 L 4.5 -28.496094 C 5.550781 -28.597656 8.25 -28.847656 10.25 -28.847656 L 36.695312 -28.847656 C 34.347656 -24.746094 29.648438 -18.949219 23.996094 -14.449219 C 20.847656 -17.199219 17.546875 -19.898438 15.546875 -21.398438 L 10.25 -17.148438 C 13.25 -15 18.347656 -10.5 21.246094 -7.550781 C 24.496094 -4.199219 28.695312 0.449219 30.796875 3.25 L 36.644531 -1.398438 C 34.695312 -3.75 31.746094 -7 28.898438 -9.847656 C 35.945312 -15.546875 42.347656 -23.546875 45.945312 -29.398438 C 46.296875 -30.046875 46.945312 -30.695312 47.644531 -31.496094 Z M 42.644531 -35.597656 "/></g></g></g><g fill="#000000" fill-opacity="1"><g transform="translate(349.972256, 57.620459)"><g><path d="M 30.996094 -24.796875 C 35.945312 -27.996094 40.445312 -31.746094 44.246094 -35.546875 L 38.894531 -40.394531 C 36.097656 -36.695312 30.898438 -32.246094 25.847656 -29.097656 C 20.246094 -25.648438 11.847656 -21.949219 3.101562 -20.046875 L 6.699219 -13.949219 C 12.5 -15.546875 18.75 -18.148438 23.898438 -20.746094 L 23.898438 -4.347656 C 23.898438 -2.148438 23.746094 1 23.546875 2.199219 L 31.445312 2.199219 C 31.097656 0.949219 30.996094 -2.148438 30.996094 -4.347656 Z M 30.996094 -24.796875 "/></g></g></g><g fill="#000000" fill-opacity="1"><g transform="translate(399.96453, 57.620459)"><g><path d="M 48.746094 -36.546875 C 47.84375 -38.296875 46.046875 -41.445312 44.695312 -43.34375 L 40.746094 -41.695312 C 42.097656 -39.847656 43.746094 -36.894531 44.796875 -34.847656 Z M 39.546875 -33.546875 L 42.394531 -34.746094 C 41.546875 -36.445312 39.695312 -39.695312 38.394531 -41.597656 L 34.445312 -39.945312 C 35.347656 -38.597656 36.347656 -36.847656 37.195312 -35.246094 L 36.597656 -35.695312 C 35.597656 -35.347656 33.597656 -35.097656 31.445312 -35.097656 L 13.796875 -35.097656 C 12.296875 -35.097656 9.25 -35.246094 7.898438 -35.445312 L 7.898438 -28.347656 C 8.949219 -28.398438 11.699219 -28.695312 13.796875 -28.695312 L 30.746094 -28.695312 C 29.648438 -25.148438 26.597656 -20.199219 23.296875 -16.449219 C 18.597656 -11.199219 10.847656 -5.097656 2.800781 -2.101562 L 7.949219 3.300781 C 14.796875 0.101562 21.449219 -5.148438 26.746094 -10.699219 C 31.445312 -6.199219 36.097656 -1.050781 39.347656 3.449219 L 45.046875 -1.550781 C 42.097656 -5.148438 36.046875 -11.550781 31.097656 -15.847656 C 34.445312 -20.347656 37.246094 -25.648438 38.945312 -29.546875 C 39.394531 -30.597656 40.296875 -32.097656 40.695312 -32.695312 Z M 39.546875 -33.546875 "/></g></g></g></svg>